<?xml version="1.0" encoding="UTF-8"?>
<svg xmlns="http://www.w3.org/2000/svg" xmlns:xlink="http://www.w3.org/1999/xlink" width="359pt" height="161pt" viewBox="0 0 359 161" version="1.1">
<g id="surface1">
<path style="fill-rule:nonzero;fill:rgb(100%,100%,100%);fill-opacity:1;stroke-width:1;stroke-linecap:round;stroke-linejoin:round;stroke:rgb(0%,0%,0%);stroke-opacity:1;stroke-miterlimit:10;" d="M 96.6 136.5 L 171.6 136.5 L 171.6 168 L 96.6 168 Z M 96.6 136.5 " transform="matrix(1.25,0,0,1.25,-120,-110)"/>
<path style=" stroke:none;fill-rule:nonzero;fill:rgb(0%,0%,0%);fill-opacity:1;" d="M 32.90625 83.4375 L 36.011719 75.390625 L 37.144531 75.390625 L 40.445312 83.4375 L 39.234375 83.4375 L 38.296875 80.996094 L 34.917969 80.996094 L 34.039062 83.4375 Z M 35.230469 80.136719 L 37.964844 80.136719 L 37.125 77.890625 C 36.859375 77.21875 36.675781 76.660156 36.558594 76.230469 C 36.449219 76.753906 36.304688 77.265625 36.109375 77.773438 Z M 35.230469 80.136719 "/>
<path style=" stroke:none;fill-rule:nonzero;fill:rgb(0%,0%,0%);fill-opacity:1;" d="M 40.996094 83.925781 L 41.953125 84.0625 C 41.992188 84.359375 42.097656 84.574219 42.285156 84.707031 C 42.527344 84.886719 42.871094 84.980469 43.300781 84.980469 C 43.753906 84.980469 44.105469 84.886719 44.355469 84.707031 C 44.597656 84.523438 44.769531 84.265625 44.863281 83.945312 C 44.910156 83.734375 44.929688 83.316406 44.921875 82.675781 C 44.492188 83.183594 43.953125 83.4375 43.320312 83.4375 C 42.507812 83.4375 41.882812 83.15625 41.445312 82.578125 C 41.015625 81.992188 40.800781 81.296875 40.800781 80.488281 C 40.800781 79.929688 40.898438 79.414062 41.09375 78.945312 C 41.296875 78.476562 41.589844 78.121094 41.972656 77.871094 C 42.347656 77.613281 42.796875 77.480469 43.320312 77.480469 C 44.007812 77.480469 44.574219 77.753906 45.019531 78.300781 L 45.019531 77.597656 L 45.9375 77.597656 L 45.9375 82.636719 C 45.9375 83.546875 45.839844 84.1875 45.644531 84.570312 C 45.457031 84.945312 45.164062 85.242188 44.765625 85.46875 C 44.375 85.6875 43.886719 85.800781 43.300781 85.800781 C 42.597656 85.800781 42.03125 85.644531 41.601562 85.332031 C 41.179688 85.019531 40.980469 84.550781 40.996094 83.925781 Z M 41.816406 80.410156 C 41.816406 81.179688 41.960938 81.738281 42.265625 82.089844 C 42.5625 82.441406 42.9375 82.617188 43.398438 82.617188 C 43.851562 82.617188 44.238281 82.441406 44.550781 82.089844 C 44.863281 81.738281 45.019531 81.191406 45.019531 80.449219 C 45.019531 79.734375 44.851562 79.195312 44.53125 78.828125 C 44.21875 78.46875 43.835938 78.28125 43.398438 78.28125 C 42.953125 78.28125 42.578125 78.46875 42.265625 78.828125 C 41.960938 79.179688 41.816406 79.707031 41.816406 80.410156 Z M 41.816406 80.410156 "/>
<path style=" stroke:none;fill-rule:nonzero;fill:rgb(0%,0%,0%);fill-opacity:1;" d="M 51.414062 81.5625 L 52.449219 81.679688 C 52.277344 82.28125 51.96875 82.75 51.53125 83.085938 C 51.101562 83.414062 50.542969 83.574219 49.871094 83.574219 C 49.019531 83.574219 48.347656 83.316406 47.839844 82.792969 C 47.339844 82.261719 47.097656 81.519531 47.097656 80.566406 C 47.097656 79.589844 47.351562 78.835938 47.859375 78.300781 C 48.367188 77.753906 49.019531 77.480469 49.832031 77.480469 C 50.613281 77.480469 51.242188 77.75 51.726562 78.28125 C 52.21875 78.804688 52.46875 79.546875 52.46875 80.507812 C 52.46875 80.578125 52.46875 80.664062 52.46875 80.78125 L 48.113281 80.78125 C 48.152344 81.421875 48.332031 81.910156 48.660156 82.246094 C 48.980469 82.585938 49.390625 82.753906 49.890625 82.753906 C 50.25 82.753906 50.558594 82.664062 50.808594 82.480469 C 51.066406 82.285156 51.265625 81.984375 51.414062 81.5625 Z M 48.171875 79.960938 L 51.433594 79.960938 C 51.394531 79.46875 51.265625 79.097656 51.0625 78.847656 C 50.75 78.472656 50.339844 78.28125 49.832031 78.28125 C 49.371094 78.28125 48.992188 78.4375 48.679688 78.75 C 48.375 79.054688 48.210938 79.453125 48.171875 79.960938 Z M 48.171875 79.960938 "/>
<path style=" stroke:none;fill-rule:nonzero;fill:rgb(0%,0%,0%);fill-opacity:1;" d="M 53.6875 83.4375 L 53.6875 77.597656 L 54.585938 77.597656 L 54.585938 78.4375 C 55 77.804688 55.621094 77.480469 56.441406 77.480469 C 56.792969 77.480469 57.109375 77.546875 57.398438 77.675781 C 57.695312 77.792969 57.914062 77.960938 58.0625 78.164062 C 58.203125 78.359375 58.304688 78.601562 58.375 78.886719 C 58.414062 79.070312 58.433594 79.390625 58.433594 79.84375 L 58.433594 83.4375 L 57.4375 83.4375 L 57.4375 79.882812 C 57.4375 79.484375 57.398438 79.179688 57.320312 78.984375 C 57.242188 78.789062 57.105469 78.632812 56.910156 78.515625 C 56.714844 78.390625 56.484375 78.320312 56.226562 78.320312 C 55.804688 78.320312 55.445312 78.457031 55.132812 78.730469 C 54.828125 78.992188 54.683594 79.5 54.683594 80.253906 L 54.683594 83.4375 Z M 53.6875 83.4375 "/>
<path style=" stroke:none;fill-rule:nonzero;fill:rgb(0%,0%,0%);fill-opacity:1;" d="M 62.109375 82.558594 L 62.246094 83.417969 C 61.960938 83.480469 61.710938 83.515625 61.503906 83.515625 C 61.140625 83.515625 60.859375 83.457031 60.664062 83.339844 C 60.46875 83.222656 60.324219 83.078125 60.234375 82.890625 C 60.15625 82.710938 60.117188 82.324219 60.117188 81.738281 L 60.117188 78.378906 L 59.394531 78.378906 L 59.394531 77.597656 L 60.117188 77.597656 L 60.117188 76.152344 L 61.113281 75.566406 L 61.113281 77.597656 L 62.109375 77.597656 L 62.109375 78.378906 L 61.113281 78.378906 L 61.113281 81.777344 C 61.113281 82.066406 61.125 82.246094 61.152344 82.324219 C 61.191406 82.402344 61.25 82.46875 61.328125 82.519531 C 61.40625 82.574219 61.515625 82.597656 61.660156 82.597656 C 61.777344 82.597656 61.925781 82.585938 62.109375 82.558594 Z M 62.109375 82.558594 "/>
<path style="fill-rule:nonzero;fill:rgb(69.803922%,85.098039%,100%);fill-opacity:1;stroke-width:1;stroke-linecap:round;stroke-linejoin:round;stroke:rgb(0%,0%,0%);stroke-opacity:1;stroke-miterlimit:10;" d="M 202 88.5 L 277 88.5 L 277 120 L 202 120 Z M 202 88.5 " transform="matrix(1.25,0,0,1.25,-120,-110)"/>
<path style=" stroke:none;fill-rule:nonzero;fill:rgb(0%,0%,0%);fill-opacity:1;" d="M 163.722656 23.4375 L 166.828125 15.390625 L 167.960938 15.390625 L 171.261719 23.4375 L 170.050781 23.4375 L 169.113281 20.996094 L 165.734375 20.996094 L 164.855469 23.4375 Z M 166.046875 20.136719 L 168.78125 20.136719 L 167.941406 17.890625 C 167.675781 17.21875 167.492188 16.660156 167.375 16.230469 C 167.265625 16.753906 167.121094 17.265625 166.925781 17.773438 Z M 166.046875 20.136719 "/>
<path style=" stroke:none;fill-rule:nonzero;fill:rgb(0%,0%,0%);fill-opacity:1;" d="M 175.796875 21.308594 L 176.773438 21.425781 C 176.664062 22.105469 176.390625 22.632812 175.953125 23.007812 C 175.507812 23.390625 174.964844 23.574219 174.332031 23.574219 C 173.535156 23.574219 172.894531 23.316406 172.417969 22.792969 C 171.933594 22.273438 171.695312 21.523438 171.695312 20.546875 C 171.695312 19.914062 171.796875 19.355469 172.007812 18.886719 C 172.210938 18.417969 172.523438 18.066406 172.945312 17.832031 C 173.375 17.597656 173.84375 17.480469 174.351562 17.480469 C 174.976562 17.480469 175.488281 17.648438 175.894531 17.96875 C 176.292969 18.28125 176.558594 18.730469 176.675781 19.316406 L 175.71875 19.472656 C 175.625 19.082031 175.464844 18.789062 175.230469 18.59375 C 174.996094 18.390625 174.710938 18.28125 174.390625 18.28125 C 173.882812 18.28125 173.472656 18.46875 173.160156 18.828125 C 172.855469 19.179688 172.710938 19.742188 172.710938 20.507812 C 172.710938 21.304688 172.855469 21.875 173.160156 22.226562 C 173.457031 22.578125 173.847656 22.753906 174.332031 22.753906 C 174.722656 22.753906 175.042969 22.636719 175.308594 22.402344 C 175.566406 22.167969 175.726562 21.804688 175.796875 21.308594 Z M 175.796875 21.308594 "/>
<path style=" stroke:none;fill-rule:nonzero;fill:rgb(0%,0%,0%);fill-opacity:1;" d="M 179.78125 22.558594 L 179.917969 23.417969 C 179.628906 23.480469 179.378906 23.515625 179.175781 23.515625 C 178.808594 23.515625 178.53125 23.457031 178.335938 23.339844 C 178.140625 23.222656 177.992188 23.078125 177.90625 22.890625 C 177.828125 22.710938 177.789062 22.324219 177.789062 21.738281 L 177.789062 18.378906 L 177.066406 18.378906 L 177.066406 17.597656 L 177.789062 17.597656 L 177.789062 16.152344 L 178.785156 15.566406 L 178.785156 17.597656 L 179.78125 17.597656 L 179.78125 18.378906 L 178.785156 18.378906 L 178.785156 21.777344 C 178.785156 22.066406 178.792969 22.246094 178.824219 22.324219 C 178.863281 22.402344 178.921875 22.46875 179 22.519531 C 179.078125 22.574219 179.183594 22.597656 179.332031 22.597656 C 179.449219 22.597656 179.59375 22.585938 179.78125 22.558594 Z M 179.78125 22.558594 "/>
<path style=" stroke:none;fill-rule:nonzero;fill:rgb(0%,0%,0%);fill-opacity:1;" d="M 180.738281 16.523438 L 180.738281 15.390625 L 181.734375 15.390625 L 181.734375 16.523438 Z M 180.738281 23.4375 L 180.738281 17.597656 L 181.734375 17.597656 L 181.734375 23.4375 Z M 180.738281 23.4375 "/>
<path style=" stroke:none;fill-rule:nonzero;fill:rgb(0%,0%,0%);fill-opacity:1;" d="M 182.867188 20.527344 C 182.867188 19.449219 183.164062 18.648438 183.765625 18.125 C 184.273438 17.695312 184.882812 17.480469 185.601562 17.480469 C 186.40625 17.480469 187.066406 17.742188 187.574219 18.261719 C 188.082031 18.785156 188.335938 19.507812 188.335938 20.429688 C 188.335938 21.1875 188.21875 21.777344 187.984375 22.207031 C 187.757812 22.636719 187.4375 22.976562 187.007812 23.222656 C 186.578125 23.457031 186.109375 23.574219 185.601562 23.574219 C 184.78125 23.574219 184.117188 23.316406 183.609375 22.792969 C 183.109375 22.261719 182.867188 21.503906 182.867188 20.527344 Z M 183.882812 20.527344 C 183.882812 21.269531 184.042969 21.832031 184.371094 22.207031 C 184.691406 22.574219 185.101562 22.753906 185.601562 22.753906 C 186.09375 22.753906 186.503906 22.574219 186.832031 22.207031 C 187.152344 21.832031 187.320312 21.257812 187.320312 20.488281 C 187.320312 19.773438 187.152344 19.226562 186.832031 18.847656 C 186.503906 18.472656 186.09375 18.28125 185.601562 18.28125 C 185.101562 18.28125 184.691406 18.472656 184.371094 18.847656 C 184.042969 19.214844 183.882812 19.773438 183.882812 20.527344 Z M 183.882812 20.527344 "/>
<path style=" stroke:none;fill-rule:nonzero;fill:rgb(0%,0%,0%);fill-opacity:1;" d="M 189.496094 23.4375 L 189.496094 17.597656 L 190.394531 17.597656 L 190.394531 18.4375 C 190.808594 17.804688 191.429688 17.480469 192.25 17.480469 C 192.601562 17.480469 192.917969 17.546875 193.207031 17.675781 C 193.503906 17.792969 193.722656 17.960938 193.871094 18.164062 C 194.011719 18.359375 194.113281 18.601562 194.183594 18.886719 C 194.222656 19.070312 194.242188 19.390625 194.242188 19.84375 L 194.242188 23.4375 L 193.246094 23.4375 L 193.246094 19.882812 C 193.246094 19.484375 193.207031 19.179688 193.128906 18.984375 C 193.050781 18.789062 192.914062 18.632812 192.71875 18.515625 C 192.523438 18.390625 192.292969 18.320312 192.035156 18.320312 C 191.613281 18.320312 191.253906 18.457031 190.941406 18.730469 C 190.636719 18.992188 190.492188 19.5 190.492188 20.253906 L 190.492188 23.4375 Z M 189.496094 23.4375 "/>
<path style="fill-rule:nonzero;fill:rgb(40%,74.901961%,100%);fill-opacity:1;stroke-width:1;stroke-linecap:round;stroke-linejoin:round;stroke:rgb(0%,0%,0%);stroke-opacity:1;stroke-miterlimit:10;" d="M 202 136.5 L 277 136.5 L 277 168 L 202 168 Z M 202 136.5 " transform="matrix(1.25,0,0,1.25,-120,-110)"/>
<path style=" stroke:none;fill-rule:nonzero;fill:rgb(0%,0%,0%);fill-opacity:1;" d="M 160.871094 83.4375 L 160.871094 75.390625 L 164.445312 75.390625 C 165.160156 75.390625 165.707031 75.464844 166.085938 75.605469 C 166.460938 75.75 166.761719 76.007812 166.984375 76.367188 C 167.203125 76.734375 167.316406 77.140625 167.316406 77.578125 C 167.316406 78.15625 167.125 78.632812 166.75 79.023438 C 166.382812 79.414062 165.816406 79.664062 165.050781 79.765625 C 165.324219 79.914062 165.539062 80.046875 165.695312 80.175781 C 166.007812 80.464844 166.300781 80.820312 166.574219 81.25 L 167.980469 83.4375 L 166.632812 83.4375 L 165.558594 81.757812 C 165.257812 81.28125 165.003906 80.914062 164.796875 80.664062 C 164.601562 80.40625 164.417969 80.226562 164.25 80.117188 C 164.09375 80.015625 163.9375 79.941406 163.78125 79.902344 C 163.648438 79.878906 163.449219 79.863281 163.175781 79.863281 L 161.945312 79.863281 L 161.945312 83.4375 Z M 161.945312 78.945312 L 164.230469 78.945312 C 164.722656 78.945312 165.109375 78.898438 165.382812 78.789062 C 165.65625 78.6875 165.863281 78.523438 166.007812 78.300781 C 166.148438 78.082031 166.222656 77.84375 166.222656 77.578125 C 166.222656 77.203125 166.078125 76.890625 165.792969 76.640625 C 165.519531 76.398438 165.082031 76.269531 164.484375 76.269531 L 161.945312 76.269531 Z M 161.945312 78.945312 "/>
<path style=" stroke:none;fill-rule:nonzero;fill:rgb(0%,0%,0%);fill-opacity:1;" d="M 172.84375 81.5625 L 173.878906 81.679688 C 173.707031 82.28125 173.398438 82.75 172.960938 83.085938 C 172.53125 83.414062 171.972656 83.574219 171.300781 83.574219 C 170.449219 83.574219 169.777344 83.316406 169.269531 82.792969 C 168.769531 82.261719 168.527344 81.519531 168.527344 80.566406 C 168.527344 79.589844 168.78125 78.835938 169.289062 78.300781 C 169.796875 77.753906 170.449219 77.480469 171.261719 77.480469 C 172.042969 77.480469 172.671875 77.75 173.15625 78.28125 C 173.648438 78.804688 173.898438 79.546875 173.898438 80.507812 C 173.898438 80.578125 173.898438 80.664062 173.898438 80.78125 L 169.542969 80.78125 C 169.582031 81.421875 169.761719 81.910156 170.089844 82.246094 C 170.410156 82.585938 170.820312 82.753906 171.320312 82.753906 C 171.679688 82.753906 171.988281 82.664062 172.238281 82.480469 C 172.496094 82.285156 172.695312 81.984375 172.84375 81.5625 Z M 169.601562 79.960938 L 172.863281 79.960938 C 172.824219 79.46875 172.695312 79.097656 172.492188 78.847656 C 172.179688 78.472656 171.769531 78.28125 171.261719 78.28125 C 170.800781 78.28125 170.421875 78.4375 170.109375 78.75 C 169.804688 79.054688 169.640625 79.453125 169.601562 79.960938 Z M 169.601562 79.960938 "/>
<path style=" stroke:none;fill-rule:nonzero;fill:rgb(0%,0%,0%);fill-opacity:1;" d="M 176.191406 83.4375 L 174.414062 77.597656 L 175.429688 77.597656 L 176.367188 80.976562 L 176.699219 82.226562 C 176.707031 82.164062 176.816406 81.757812 177.011719 81.015625 L 177.929688 77.597656 L 178.945312 77.597656 L 179.824219 80.996094 L 180.117188 82.109375 L 180.449219 80.976562 L 181.445312 77.597656 L 182.402344 77.597656 L 180.585938 83.4375 L 179.570312 83.4375 L 178.632812 79.941406 L 178.398438 78.945312 L 177.226562 83.4375 Z M 176.191406 83.4375 "/>
<path style=" stroke:none;fill-rule:nonzero;fill:rgb(0%,0%,0%);fill-opacity:1;" d="M 187.050781 82.714844 C 186.683594 83.027344 186.332031 83.25 185.996094 83.378906 C 185.652344 83.507812 185.292969 83.574219 184.902344 83.574219 C 184.261719 83.574219 183.769531 83.417969 183.417969 83.105469 C 183.074219 82.792969 182.910156 82.390625 182.910156 81.894531 C 182.910156 81.609375 182.972656 81.347656 183.105469 81.113281 C 183.230469 80.878906 183.402344 80.695312 183.613281 80.546875 C 183.816406 80.40625 184.050781 80.292969 184.316406 80.214844 C 184.511719 80.175781 184.804688 80.132812 185.195312 80.078125 C 186 79.992188 186.589844 79.875 186.972656 79.726562 C 186.972656 79.601562 186.972656 79.511719 186.972656 79.472656 C 186.972656 79.070312 186.878906 78.789062 186.699219 78.632812 C 186.433594 78.398438 186.058594 78.28125 185.566406 78.28125 C 185.097656 78.28125 184.75 78.367188 184.53125 78.535156 C 184.304688 78.691406 184.144531 78.980469 184.042969 79.394531 L 183.085938 79.277344 C 183.164062 78.863281 183.300781 78.53125 183.496094 78.28125 C 183.699219 78.023438 183.992188 77.828125 184.375 77.695312 C 184.765625 77.554688 185.203125 77.480469 185.703125 77.480469 C 186.210938 77.480469 186.609375 77.539062 186.914062 77.65625 C 187.226562 77.773438 187.449219 77.925781 187.597656 78.105469 C 187.753906 78.277344 187.855469 78.496094 187.910156 78.769531 C 187.949219 78.941406 187.96875 79.238281 187.96875 79.667969 L 187.96875 80.996094 C 187.96875 81.910156 187.988281 82.492188 188.027344 82.734375 C 188.066406 82.984375 188.148438 83.21875 188.28125 83.4375 L 187.246094 83.4375 C 187.136719 83.234375 187.074219 82.988281 187.050781 82.714844 Z M 186.972656 80.507812 C 186.605469 80.65625 186.0625 80.777344 185.351562 80.878906 C 184.945312 80.945312 184.65625 81.015625 184.492188 81.09375 C 184.320312 81.164062 184.1875 81.265625 184.101562 81.40625 C 184.007812 81.554688 183.964844 81.710938 183.964844 81.875 C 183.964844 82.140625 184.0625 82.359375 184.257812 82.539062 C 184.453125 82.710938 184.746094 82.792969 185.136719 82.792969 C 185.511719 82.792969 185.847656 82.710938 186.152344 82.539062 C 186.449219 82.375 186.667969 82.144531 186.816406 81.855469 C 186.917969 81.636719 186.972656 81.308594 186.972656 80.878906 Z M 186.972656 80.507812 "/>
<path style=" stroke:none;fill-rule:nonzero;fill:rgb(0%,0%,0%);fill-opacity:1;" d="M 189.480469 83.4375 L 189.480469 77.597656 L 190.378906 77.597656 L 190.378906 78.496094 C 190.597656 78.082031 190.808594 77.808594 191.003906 77.675781 C 191.199219 77.546875 191.414062 77.480469 191.648438 77.480469 C 191.96875 77.480469 192.3125 77.585938 192.664062 77.792969 L 192.3125 78.710938 C 192.078125 78.570312 191.832031 78.496094 191.589844 78.496094 C 191.378906 78.496094 191.183594 78.5625 191.003906 78.691406 C 190.832031 78.824219 190.710938 79.003906 190.632812 79.238281 C 190.523438 79.589844 190.476562 79.976562 190.476562 80.390625 L 190.476562 83.4375 Z M 189.480469 83.4375 "/>
<path style=" stroke:none;fill-rule:nonzero;fill:rgb(0%,0%,0%);fill-opacity:1;" d="M 197.035156 83.4375 L 197.035156 82.695312 C 196.652344 83.28125 196.105469 83.574219 195.394531 83.574219 C 194.933594 83.574219 194.515625 83.441406 194.125 83.183594 C 193.734375 82.925781 193.425781 82.570312 193.207031 82.109375 C 192.996094 81.65625 192.894531 81.128906 192.894531 80.527344 C 192.894531 79.941406 192.992188 79.414062 193.1875 78.945312 C 193.382812 78.46875 193.664062 78.101562 194.046875 77.851562 C 194.4375 77.609375 194.871094 77.480469 195.355469 77.480469 C 195.707031 77.480469 196.019531 77.554688 196.292969 77.695312 C 196.566406 77.84375 196.785156 78.039062 196.957031 78.28125 L 196.957031 75.390625 L 197.953125 75.390625 L 197.953125 83.4375 Z M 193.910156 80.527344 C 193.910156 81.269531 194.066406 81.832031 194.378906 82.207031 C 194.691406 82.574219 195.0625 82.753906 195.492188 82.753906 C 195.921875 82.753906 196.28125 82.578125 196.585938 82.226562 C 196.898438 81.875 197.054688 81.335938 197.054688 80.605469 C 197.054688 79.8125 196.898438 79.226562 196.585938 78.847656 C 196.273438 78.472656 195.890625 78.28125 195.453125 78.28125 C 195.007812 78.28125 194.636719 78.46875 194.339844 78.828125 C 194.050781 79.195312 193.910156 79.761719 193.910156 80.527344 Z M 193.910156 80.527344 "/>
<path style="fill-rule:nonzero;fill:rgb(100%,100%,100%);fill-opacity:1;stroke-width:1;stroke-linecap:round;stroke-linejoin:round;stroke:rgb(0%,0%,0%);stroke-opacity:1;stroke-miterlimit:10;" d="M 307.4 136.5 L 382.4 136.5 L 382.4 168 L 307.4 168 Z M 307.4 136.5 " transform="matrix(1.25,0,0,1.25,-120,-110)"/>
<path style=" stroke:none;fill-rule:nonzero;fill:rgb(0%,0%,0%);fill-opacity:1;" d="M 280.445312 83.4375 L 280.445312 75.390625 L 286.265625 75.390625 L 286.265625 76.328125 L 281.5 76.328125 L 281.5 78.808594 L 285.953125 78.808594 L 285.953125 79.746094 L 281.5 79.746094 L 281.5 82.480469 L 286.441406 82.480469 L 286.441406 83.4375 Z M 280.445312 83.4375 "/>
<path style=" stroke:none;fill-rule:nonzero;fill:rgb(0%,0%,0%);fill-opacity:1;" d="M 287.792969 83.4375 L 287.792969 77.597656 L 288.691406 77.597656 L 288.691406 78.4375 C 289.105469 77.804688 289.726562 77.480469 290.546875 77.480469 C 290.898438 77.480469 291.214844 77.546875 291.503906 77.675781 C 291.800781 77.792969 292.023438 77.960938 292.167969 78.164062 C 292.308594 78.359375 292.414062 78.601562 292.480469 78.886719 C 292.519531 79.070312 292.539062 79.390625 292.539062 79.84375 L 292.539062 83.4375 L 291.542969 83.4375 L 291.542969 79.882812 C 291.542969 79.484375 291.503906 79.179688 291.425781 78.984375 C 291.347656 78.789062 291.210938 78.632812 291.015625 78.515625 C 290.820312 78.390625 290.589844 78.320312 290.332031 78.320312 C 289.914062 78.320312 289.550781 78.457031 289.238281 78.730469 C 288.9375 78.992188 288.789062 79.5 288.789062 80.253906 L 288.789062 83.4375 Z M 287.792969 83.4375 "/>
<path style=" stroke:none;fill-rule:nonzero;fill:rgb(0%,0%,0%);fill-opacity:1;" d="M 295.671875 83.4375 L 293.445312 77.597656 L 294.5 77.597656 L 295.75 81.09375 C 295.875 81.476562 296.003906 81.867188 296.121094 82.265625 C 296.207031 81.96875 296.335938 81.601562 296.492188 81.171875 L 297.78125 77.597656 L 298.796875 77.597656 L 296.589844 83.4375 Z M 295.671875 83.4375 "/>
<path style=" stroke:none;fill-rule:nonzero;fill:rgb(0%,0%,0%);fill-opacity:1;" d="M 299.675781 76.523438 L 299.675781 75.390625 L 300.671875 75.390625 L 300.671875 76.523438 Z M 299.675781 83.4375 L 299.675781 77.597656 L 300.671875 77.597656 L 300.671875 83.4375 Z M 299.675781 83.4375 "/>
<path style=" stroke:none;fill-rule:nonzero;fill:rgb(0%,0%,0%);fill-opacity:1;" d="M 302.15625 83.4375 L 302.15625 77.597656 L 303.054688 77.597656 L 303.054688 78.496094 C 303.273438 78.082031 303.484375 77.808594 303.679688 77.675781 C 303.875 77.546875 304.089844 77.480469 304.324219 77.480469 C 304.644531 77.480469 304.988281 77.585938 305.339844 77.792969 L 304.988281 78.710938 C 304.753906 78.570312 304.507812 78.496094 304.265625 78.496094 C 304.054688 78.496094 303.859375 78.5625 303.679688 78.691406 C 303.507812 78.824219 303.386719 79.003906 303.308594 79.238281 C 303.199219 79.589844 303.152344 79.976562 303.152344 80.390625 L 303.152344 83.4375 Z M 302.15625 83.4375 "/>
<path style=" stroke:none;fill-rule:nonzero;fill:rgb(0%,0%,0%);fill-opacity:1;" d="M 305.550781 80.527344 C 305.550781 79.449219 305.847656 78.648438 306.449219 78.125 C 306.957031 77.695312 307.566406 77.480469 308.285156 77.480469 C 309.089844 77.480469 309.75 77.742188 310.257812 78.261719 C 310.765625 78.785156 311.019531 79.507812 311.019531 80.429688 C 311.019531 81.1875 310.902344 81.777344 310.667969 82.207031 C 310.441406 82.636719 310.121094 82.976562 309.691406 83.222656 C 309.261719 83.457031 308.792969 83.574219 308.285156 83.574219 C 307.464844 83.574219 306.800781 83.316406 306.292969 82.792969 C 305.792969 82.261719 305.550781 81.503906 305.550781 80.527344 Z M 306.566406 80.527344 C 306.566406 81.269531 306.726562 81.832031 307.054688 82.207031 C 307.375 82.574219 307.785156 82.753906 308.285156 82.753906 C 308.777344 82.753906 309.1875 82.574219 309.515625 82.207031 C 309.835938 81.832031 310.003906 81.257812 310.003906 80.488281 C 310.003906 79.773438 309.835938 79.226562 309.515625 78.847656 C 309.1875 78.472656 308.777344 78.28125 308.285156 78.28125 C 307.785156 78.28125 307.375 78.472656 307.054688 78.847656 C 306.726562 79.214844 306.566406 79.773438 306.566406 80.527344 Z M 306.566406 80.527344 "/>
<path style=" stroke:none;fill-rule:nonzero;fill:rgb(0%,0%,0%);fill-opacity:1;" d="M 312.179688 83.4375 L 312.179688 77.597656 L 313.078125 77.597656 L 313.078125 78.4375 C 313.492188 77.804688 314.113281 77.480469 314.933594 77.480469 C 315.285156 77.480469 315.601562 77.546875 315.890625 77.675781 C 316.1875 77.792969 316.40625 77.960938 316.554688 78.164062 C 316.695312 78.359375 316.796875 78.601562 316.867188 78.886719 C 316.90625 79.070312 316.925781 79.390625 316.925781 79.84375 L 316.925781 83.4375 L 315.929688 83.4375 L 315.929688 79.882812 C 315.929688 79.484375 315.890625 79.179688 315.8125 78.984375 C 315.734375 78.789062 315.597656 78.632812 315.402344 78.515625 C 315.207031 78.390625 314.976562 78.320312 314.71875 78.320312 C 314.296875 78.320312 313.9375 78.457031 313.625 78.730469 C 313.320312 78.992188 313.175781 79.5 313.175781 80.253906 L 313.175781 83.4375 Z M 312.179688 83.4375 "/>
<path style=" stroke:none;fill-rule:nonzero;fill:rgb(0%,0%,0%);fill-opacity:1;" d="M 318.4375 83.4375 L 318.4375 77.597656 L 319.316406 77.597656 L 319.316406 78.417969 C 319.496094 78.132812 319.734375 77.90625 320.039062 77.734375 C 320.351562 77.570312 320.703125 77.480469 321.09375 77.480469 C 321.523438 77.480469 321.875 77.574219 322.148438 77.753906 C 322.421875 77.925781 322.617188 78.171875 322.734375 78.496094 C 323.203125 77.820312 323.796875 77.480469 324.53125 77.480469 C 325.117188 77.480469 325.566406 77.648438 325.878906 77.96875 C 326.191406 78.28125 326.347656 78.769531 326.347656 79.433594 L 326.347656 83.4375 L 325.351562 83.4375 L 325.351562 79.765625 C 325.351562 79.367188 325.316406 79.078125 325.253906 78.90625 C 325.199219 78.742188 325.085938 78.601562 324.921875 78.496094 C 324.75 78.378906 324.550781 78.320312 324.316406 78.320312 C 323.910156 78.320312 323.574219 78.457031 323.300781 78.730469 C 323.027344 79.003906 322.890625 79.445312 322.890625 80.039062 L 322.890625 83.4375 L 321.894531 83.4375 L 321.894531 79.648438 C 321.894531 79.210938 321.816406 78.875 321.660156 78.652344 C 321.503906 78.433594 321.238281 78.320312 320.878906 78.320312 C 320.589844 78.320312 320.332031 78.398438 320.097656 78.554688 C 319.863281 78.703125 319.691406 78.914062 319.589844 79.199219 C 319.480469 79.472656 319.433594 79.878906 319.433594 80.410156 L 319.433594 83.4375 Z M 318.4375 83.4375 "/>
<path style=" stroke:none;fill-rule:nonzero;fill:rgb(0%,0%,0%);fill-opacity:1;" d="M 331.792969 81.5625 L 332.828125 81.679688 C 332.65625 82.28125 332.347656 82.75 331.910156 83.085938 C 331.480469 83.414062 330.921875 83.574219 330.25 83.574219 C 329.398438 83.574219 328.726562 83.316406 328.21875 82.792969 C 327.71875 82.261719 327.476562 81.519531 327.476562 80.566406 C 327.476562 79.589844 327.730469 78.835938 328.238281 78.300781 C 328.746094 77.753906 329.398438 77.480469 330.210938 77.480469 C 330.992188 77.480469 331.621094 77.75 332.105469 78.28125 C 332.597656 78.804688 332.847656 79.546875 332.847656 80.507812 C 332.847656 80.578125 332.847656 80.664062 332.847656 80.78125 L 328.492188 80.78125 C 328.53125 81.421875 328.710938 81.910156 329.039062 82.246094 C 329.359375 82.585938 329.769531 82.753906 330.269531 82.753906 C 330.628906 82.753906 330.9375 82.664062 331.1875 82.480469 C 331.445312 82.285156 331.644531 81.984375 331.792969 81.5625 Z M 328.550781 79.960938 L 331.8125 79.960938 C 331.773438 79.46875 331.644531 79.097656 331.441406 78.847656 C 331.128906 78.472656 330.71875 78.28125 330.210938 78.28125 C 329.75 78.28125 329.371094 78.4375 329.058594 78.75 C 328.753906 79.054688 328.589844 79.453125 328.550781 79.960938 Z M 328.550781 79.960938 "/>
<path style=" stroke:none;fill-rule:nonzero;fill:rgb(0%,0%,0%);fill-opacity:1;" d="M 334.066406 83.4375 L 334.066406 77.597656 L 334.964844 77.597656 L 334.964844 78.4375 C 335.378906 77.804688 336 77.480469 336.820312 77.480469 C 337.171875 77.480469 337.488281 77.546875 337.777344 77.675781 C 338.074219 77.792969 338.292969 77.960938 338.441406 78.164062 C 338.582031 78.359375 338.683594 78.601562 338.753906 78.886719 C 338.792969 79.070312 338.8125 79.390625 338.8125 79.84375 L 338.8125 83.4375 L 337.816406 83.4375 L 337.816406 79.882812 C 337.816406 79.484375 337.777344 79.179688 337.699219 78.984375 C 337.621094 78.789062 337.484375 78.632812 337.289062 78.515625 C 337.09375 78.390625 336.863281 78.320312 336.605469 78.320312 C 336.183594 78.320312 335.824219 78.457031 335.511719 78.730469 C 335.207031 78.992188 335.0625 79.5 335.0625 80.253906 L 335.0625 83.4375 Z M 334.066406 83.4375 "/>
<path style=" stroke:none;fill-rule:nonzero;fill:rgb(0%,0%,0%);fill-opacity:1;" d="M 342.488281 82.558594 L 342.625 83.417969 C 342.339844 83.480469 342.089844 83.515625 341.882812 83.515625 C 341.519531 83.515625 341.238281 83.457031 341.042969 83.339844 C 340.847656 83.222656 340.703125 83.078125 340.613281 82.890625 C 340.535156 82.710938 340.496094 82.324219 340.496094 81.738281 L 340.496094 78.378906 L 339.773438 78.378906 L 339.773438 77.597656 L 340.496094 77.597656 L 340.496094 76.152344 L 341.492188 75.566406 L 341.492188 77.597656 L 342.488281 77.597656 L 342.488281 78.378906 L 341.492188 78.378906 L 341.492188 81.777344 C 341.492188 82.066406 341.503906 82.246094 341.53125 82.324219 C 341.570312 82.402344 341.628906 82.46875 341.707031 82.519531 C 341.785156 82.574219 341.894531 82.597656 342.039062 82.597656 C 342.15625 82.597656 342.304688 82.585938 342.488281 82.558594 Z M 342.488281 82.558594 "/>
<path style="fill:none;stroke-width:1;stroke-linecap:round;stroke-linejoin:miter;stroke:rgb(0%,0%,0%);stroke-opacity:1;stroke-miterlimit:10;" d="M 239.5 120 L 239.5 128.25 L 239.5 127.8 L 239.5 130.6 " transform="matrix(1.25,0,0,1.25,-120,-110)"/>
<path style="fill:none;stroke-width:1;stroke-linecap:butt;stroke-linejoin:miter;stroke:rgb(0%,0%,0%);stroke-opacity:1;stroke-miterlimit:10;" d="M 239.5 134.6 L 239.5 130.6 M 241 130.6 L 239.5 134.6 L 238 130.6 " transform="matrix(1.25,0,0,1.25,-120,-110)"/>
<path style="fill:none;stroke-width:1;stroke-linecap:round;stroke-linejoin:miter;stroke:rgb(0%,0%,0%);stroke-opacity:1;stroke-miterlimit:10;" d="M 202 152.25 L 177.5 152.25 " transform="matrix(1.25,0,0,1.25,-120,-110)"/>
<path style="fill:none;stroke-width:1;stroke-linecap:butt;stroke-linejoin:miter;stroke:rgb(0%,0%,0%);stroke-opacity:1;stroke-miterlimit:10;" d="M 173.5 152.25 L 177.5 152.25 M 177.5 153.75 L 173.5 152.25 L 177.5 150.75 " transform="matrix(1.25,0,0,1.25,-120,-110)"/>
<path style="fill:none;stroke-width:1;stroke-linecap:round;stroke-linejoin:miter;stroke:rgb(0%,0%,0%);stroke-opacity:1;stroke-miterlimit:10;" d="M 307.4 152.25 L 282.9 152.25 " transform="matrix(1.25,0,0,1.25,-120,-110)"/>
<path style="fill:none;stroke-width:1;stroke-linecap:butt;stroke-linejoin:miter;stroke:rgb(0%,0%,0%);stroke-opacity:1;stroke-miterlimit:10;" d="M 278.9 152.25 L 282.9 152.25 M 282.9 153.75 L 278.9 152.25 L 282.9 150.75 " transform="matrix(1.25,0,0,1.25,-120,-110)"/>
<path style="fill-rule:nonzero;fill:rgb(69.803922%,85.098039%,100%);fill-opacity:1;stroke-width:1;stroke-linecap:round;stroke-linejoin:round;stroke:rgb(0%,0%,0%);stroke-opacity:1;stroke-miterlimit:10;" d="M 202 184.5 L 277 184.5 L 277 216 L 202 216 Z M 202 184.5 " transform="matrix(1.25,0,0,1.25,-120,-110)"/>
<path style=" stroke:none;fill-rule:nonzero;fill:rgb(0%,0%,0%);fill-opacity:1;" d="M 149.59375 139.511719 C 149.59375 138.183594 149.949219 137.144531 150.667969 136.386719 C 151.382812 135.621094 152.308594 135.234375 153.441406 135.234375 C 154.183594 135.234375 154.851562 135.421875 155.453125 135.78125 C 156.050781 136.132812 156.507812 136.632812 156.820312 137.265625 C 157.132812 137.90625 157.289062 138.625 157.289062 139.414062 C 157.289062 140.234375 157.125 140.972656 156.800781 141.621094 C 156.472656 142.261719 156.003906 142.75 155.394531 143.085938 C 154.792969 143.414062 154.144531 143.574219 153.441406 143.574219 C 152.683594 143.574219 152.007812 143.394531 151.410156 143.027344 C 150.808594 142.664062 150.355469 142.164062 150.042969 141.523438 C 149.742188 140.890625 149.59375 140.214844 149.59375 139.511719 Z M 150.6875 139.53125 C 150.6875 140.507812 150.945312 141.28125 151.46875 141.835938 C 151.988281 142.382812 152.644531 142.65625 153.441406 142.65625 C 154.234375 142.65625 154.890625 142.378906 155.414062 141.816406 C 155.933594 141.257812 156.195312 140.460938 156.195312 139.414062 C 156.195312 138.765625 156.082031 138.199219 155.863281 137.714844 C 155.640625 137.222656 155.316406 136.835938 154.886719 136.5625 C 154.457031 136.289062 153.980469 136.152344 153.460938 136.152344 C 152.703125 136.152344 152.054688 136.414062 151.507812 136.933594 C 150.960938 137.457031 150.6875 138.320312 150.6875 139.53125 Z M 150.6875 139.53125 "/>
<path style=" stroke:none;fill-rule:nonzero;fill:rgb(0%,0%,0%);fill-opacity:1;" d="M 159.457031 143.4375 L 158.539062 143.4375 L 158.539062 135.390625 L 159.515625 135.390625 L 159.515625 138.261719 C 159.929688 137.742188 160.464844 137.480469 161.117188 137.480469 C 161.480469 137.480469 161.820312 137.554688 162.132812 137.695312 C 162.457031 137.84375 162.722656 138.042969 162.933594 138.300781 C 163.140625 138.5625 163.304688 138.882812 163.421875 139.257812 C 163.539062 139.625 163.597656 140.015625 163.597656 140.429688 C 163.597656 141.4375 163.347656 142.207031 162.855469 142.753906 C 162.359375 143.300781 161.765625 143.574219 161.078125 143.574219 C 160.386719 143.574219 159.847656 143.289062 159.457031 142.714844 Z M 159.4375 140.46875 C 159.4375 141.171875 159.535156 141.679688 159.730469 141.992188 C 160.042969 142.5 160.457031 142.753906 160.980469 142.753906 C 161.421875 142.753906 161.800781 142.570312 162.113281 142.1875 C 162.425781 141.8125 162.582031 141.25 162.582031 140.507812 C 162.582031 139.757812 162.429688 139.195312 162.132812 138.828125 C 161.832031 138.46875 161.46875 138.28125 161.039062 138.28125 C 160.59375 138.28125 160.21875 138.472656 159.90625 138.847656 C 159.59375 139.226562 159.4375 139.765625 159.4375 140.46875 Z M 159.4375 140.46875 "/>
<path style=" stroke:none;fill-rule:nonzero;fill:rgb(0%,0%,0%);fill-opacity:1;" d="M 164.40625 141.699219 L 165.382812 141.542969 C 165.433594 141.933594 165.582031 142.234375 165.832031 142.441406 C 166.089844 142.652344 166.441406 142.753906 166.886719 142.753906 C 167.339844 142.753906 167.679688 142.664062 167.902344 142.480469 C 168.121094 142.300781 168.234375 142.085938 168.234375 141.835938 C 168.234375 141.601562 168.136719 141.425781 167.941406 141.308594 C 167.796875 141.21875 167.457031 141.101562 166.925781 140.957031 C 166.195312 140.777344 165.6875 140.621094 165.402344 140.488281 C 165.128906 140.359375 164.917969 140.175781 164.777344 139.941406 C 164.632812 139.707031 164.5625 139.449219 164.5625 139.160156 C 164.5625 138.902344 164.621094 138.664062 164.738281 138.4375 C 164.855469 138.21875 165.015625 138.027344 165.226562 137.871094 C 165.382812 137.769531 165.589844 137.675781 165.851562 137.597656 C 166.125 137.519531 166.410156 137.480469 166.710938 137.480469 C 167.164062 137.480469 167.5625 137.546875 167.902344 137.675781 C 168.253906 137.808594 168.511719 137.984375 168.683594 138.203125 C 168.851562 138.429688 168.96875 138.726562 169.035156 139.101562 L 168.058594 139.238281 C 168.019531 138.941406 167.886719 138.707031 167.667969 138.535156 C 167.457031 138.367188 167.164062 138.28125 166.789062 138.28125 C 166.332031 138.28125 166.007812 138.359375 165.8125 138.515625 C 165.617188 138.664062 165.519531 138.835938 165.519531 139.042969 C 165.519531 139.175781 165.558594 139.289062 165.636719 139.375 C 165.714844 139.492188 165.84375 139.585938 166.027344 139.648438 C 166.117188 139.6875 166.402344 139.773438 166.886719 139.902344 C 167.589844 140.085938 168.078125 140.234375 168.351562 140.351562 C 168.636719 140.46875 168.859375 140.644531 169.015625 140.878906 C 169.171875 141.101562 169.25 141.382812 169.25 141.71875 C 169.25 142.0625 169.152344 142.375 168.957031 142.65625 C 168.761719 142.945312 168.480469 143.171875 168.117188 143.339844 C 167.765625 143.496094 167.355469 143.574219 166.886719 143.574219 C 166.128906 143.574219 165.550781 143.417969 165.148438 143.105469 C 164.757812 142.78125 164.507812 142.3125 164.40625 141.699219 Z M 164.40625 141.699219 "/>
<path style=" stroke:none;fill-rule:nonzero;fill:rgb(0%,0%,0%);fill-opacity:1;" d="M 174.40625 141.5625 L 175.441406 141.679688 C 175.269531 142.28125 174.964844 142.75 174.523438 143.085938 C 174.09375 143.414062 173.539062 143.574219 172.863281 143.574219 C 172.015625 143.574219 171.339844 143.316406 170.832031 142.792969 C 170.335938 142.261719 170.089844 141.519531 170.089844 140.566406 C 170.089844 139.589844 170.34375 138.835938 170.851562 138.300781 C 171.359375 137.753906 172.015625 137.480469 172.824219 137.480469 C 173.605469 137.480469 174.234375 137.75 174.71875 138.28125 C 175.210938 138.804688 175.460938 139.546875 175.460938 140.507812 C 175.460938 140.578125 175.460938 140.664062 175.460938 140.78125 L 171.105469 140.78125 C 171.144531 141.421875 171.324219 141.910156 171.652344 142.246094 C 171.976562 142.585938 172.386719 142.753906 172.882812 142.753906 C 173.246094 142.753906 173.550781 142.664062 173.800781 142.480469 C 174.058594 142.285156 174.261719 141.984375 174.40625 141.5625 Z M 171.164062 139.960938 L 174.425781 139.960938 C 174.386719 139.46875 174.261719 139.097656 174.054688 138.847656 C 173.742188 138.472656 173.332031 138.28125 172.824219 138.28125 C 172.367188 138.28125 171.984375 138.4375 171.671875 138.75 C 171.371094 139.054688 171.203125 139.453125 171.164062 139.960938 Z M 171.164062 139.960938 "/>
<path style=" stroke:none;fill-rule:nonzero;fill:rgb(0%,0%,0%);fill-opacity:1;" d="M 176.660156 143.4375 L 176.660156 137.597656 L 177.558594 137.597656 L 177.558594 138.496094 C 177.777344 138.082031 177.988281 137.808594 178.183594 137.675781 C 178.378906 137.546875 178.59375 137.480469 178.828125 137.480469 C 179.148438 137.480469 179.492188 137.585938 179.84375 137.792969 L 179.492188 138.710938 C 179.257812 138.570312 179.011719 138.496094 178.769531 138.496094 C 178.558594 138.496094 178.363281 138.5625 178.183594 138.691406 C 178.011719 138.824219 177.890625 139.003906 177.8125 139.238281 C 177.703125 139.589844 177.65625 139.976562 177.65625 140.390625 L 177.65625 143.4375 Z M 176.660156 143.4375 "/>
<path style=" stroke:none;fill-rule:nonzero;fill:rgb(0%,0%,0%);fill-opacity:1;" d="M 182.046875 143.4375 L 179.820312 137.597656 L 180.875 137.597656 L 182.125 141.09375 C 182.25 141.476562 182.378906 141.867188 182.496094 142.265625 C 182.582031 141.96875 182.710938 141.601562 182.867188 141.171875 L 184.15625 137.597656 L 185.171875 137.597656 L 182.964844 143.4375 Z M 182.046875 143.4375 "/>
<path style=" stroke:none;fill-rule:nonzero;fill:rgb(0%,0%,0%);fill-opacity:1;" d="M 189.859375 142.714844 C 189.492188 143.027344 189.140625 143.25 188.804688 143.378906 C 188.460938 143.507812 188.101562 143.574219 187.710938 143.574219 C 187.070312 143.574219 186.578125 143.417969 186.226562 143.105469 C 185.882812 142.792969 185.71875 142.390625 185.71875 141.894531 C 185.71875 141.609375 185.78125 141.347656 185.914062 141.113281 C 186.039062 140.878906 186.210938 140.695312 186.421875 140.546875 C 186.625 140.40625 186.859375 140.292969 187.125 140.214844 C 187.320312 140.175781 187.613281 140.132812 188.003906 140.078125 C 188.808594 139.992188 189.398438 139.875 189.78125 139.726562 C 189.78125 139.601562 189.78125 139.511719 189.78125 139.472656 C 189.78125 139.070312 189.6875 138.789062 189.507812 138.632812 C 189.242188 138.398438 188.867188 138.28125 188.375 138.28125 C 187.90625 138.28125 187.558594 138.367188 187.339844 138.535156 C 187.113281 138.691406 186.953125 138.980469 186.851562 139.394531 L 185.894531 139.277344 C 185.972656 138.863281 186.109375 138.53125 186.304688 138.28125 C 186.507812 138.023438 186.800781 137.828125 187.183594 137.695312 C 187.574219 137.554688 188.011719 137.480469 188.511719 137.480469 C 189.019531 137.480469 189.417969 137.539062 189.722656 137.65625 C 190.035156 137.773438 190.257812 137.925781 190.40625 138.105469 C 190.5625 138.277344 190.664062 138.496094 190.71875 138.769531 C 190.757812 138.941406 190.777344 139.238281 190.777344 139.667969 L 190.777344 140.996094 C 190.777344 141.910156 190.796875 142.492188 190.835938 142.734375 C 190.875 142.984375 190.957031 143.21875 191.089844 143.4375 L 190.054688 143.4375 C 189.945312 143.234375 189.882812 142.988281 189.859375 142.714844 Z M 189.78125 140.507812 C 189.414062 140.65625 188.871094 140.777344 188.160156 140.878906 C 187.753906 140.945312 187.464844 141.015625 187.300781 141.09375 C 187.128906 141.164062 186.996094 141.265625 186.910156 141.40625 C 186.816406 141.554688 186.773438 141.710938 186.773438 141.875 C 186.773438 142.140625 186.871094 142.359375 187.066406 142.539062 C 187.261719 142.710938 187.554688 142.792969 187.945312 142.792969 C 188.320312 142.792969 188.65625 142.710938 188.960938 142.539062 C 189.257812 142.375 189.476562 142.144531 189.625 141.855469 C 189.726562 141.636719 189.78125 141.308594 189.78125 140.878906 Z M 189.78125 140.507812 "/>
<path style=" stroke:none;fill-rule:nonzero;fill:rgb(0%,0%,0%);fill-opacity:1;" d="M 194.476562 142.558594 L 194.613281 143.417969 C 194.324219 143.480469 194.074219 143.515625 193.871094 143.515625 C 193.503906 143.515625 193.226562 143.457031 193.03125 143.339844 C 192.835938 143.222656 192.6875 143.078125 192.601562 142.890625 C 192.523438 142.710938 192.484375 142.324219 192.484375 141.738281 L 192.484375 138.378906 L 191.761719 138.378906 L 191.761719 137.597656 L 192.484375 137.597656 L 192.484375 136.152344 L 193.480469 135.566406 L 193.480469 137.597656 L 194.476562 137.597656 L 194.476562 138.378906 L 193.480469 138.378906 L 193.480469 141.777344 C 193.480469 142.066406 193.488281 142.246094 193.519531 142.324219 C 193.558594 142.402344 193.617188 142.46875 193.695312 142.519531 C 193.773438 142.574219 193.878906 142.597656 194.027344 142.597656 C 194.144531 142.597656 194.289062 142.585938 194.476562 142.558594 Z M 194.476562 142.558594 "/>
<path style=" stroke:none;fill-rule:nonzero;fill:rgb(0%,0%,0%);fill-opacity:1;" d="M 195.433594 136.523438 L 195.433594 135.390625 L 196.429688 135.390625 L 196.429688 136.523438 Z M 195.433594 143.4375 L 195.433594 137.597656 L 196.429688 137.597656 L 196.429688 143.4375 Z M 195.433594 143.4375 "/>
<path style=" stroke:none;fill-rule:nonzero;fill:rgb(0%,0%,0%);fill-opacity:1;" d="M 197.5625 140.527344 C 197.5625 139.449219 197.859375 138.648438 198.460938 138.125 C 198.96875 137.695312 199.578125 137.480469 200.296875 137.480469 C 201.101562 137.480469 201.761719 137.742188 202.269531 138.261719 C 202.777344 138.785156 203.03125 139.507812 203.03125 140.429688 C 203.03125 141.1875 202.914062 141.777344 202.679688 142.207031 C 202.453125 142.636719 202.132812 142.976562 201.703125 143.222656 C 201.273438 143.457031 200.804688 143.574219 200.296875 143.574219 C 199.476562 143.574219 198.8125 143.316406 198.304688 142.792969 C 197.804688 142.261719 197.5625 141.503906 197.5625 140.527344 Z M 198.578125 140.527344 C 198.578125 141.269531 198.738281 141.832031 199.066406 142.207031 C 199.386719 142.574219 199.796875 142.753906 200.296875 142.753906 C 200.789062 142.753906 201.199219 142.574219 201.527344 142.207031 C 201.847656 141.832031 202.015625 141.257812 202.015625 140.488281 C 202.015625 139.773438 201.847656 139.226562 201.527344 138.847656 C 201.199219 138.472656 200.789062 138.28125 200.296875 138.28125 C 199.796875 138.28125 199.386719 138.472656 199.066406 138.847656 C 198.738281 139.214844 198.578125 139.773438 198.578125 140.527344 Z M 198.578125 140.527344 "/>
<path style=" stroke:none;fill-rule:nonzero;fill:rgb(0%,0%,0%);fill-opacity:1;" d="M 204.191406 143.4375 L 204.191406 137.597656 L 205.089844 137.597656 L 205.089844 138.4375 C 205.503906 137.804688 206.125 137.480469 206.945312 137.480469 C 207.296875 137.480469 207.613281 137.546875 207.902344 137.675781 C 208.199219 137.792969 208.417969 137.960938 208.566406 138.164062 C 208.707031 138.359375 208.808594 138.601562 208.878906 138.886719 C 208.917969 139.070312 208.9375 139.390625 208.9375 139.84375 L 208.9375 143.4375 L 207.941406 143.4375 L 207.941406 139.882812 C 207.941406 139.484375 207.902344 139.179688 207.824219 138.984375 C 207.746094 138.789062 207.609375 138.632812 207.414062 138.515625 C 207.21875 138.390625 206.988281 138.320312 206.730469 138.320312 C 206.308594 138.320312 205.949219 138.457031 205.636719 138.730469 C 205.332031 138.992188 205.1875 139.5 205.1875 140.253906 L 205.1875 143.4375 Z M 204.191406 143.4375 "/>
<path style="fill:none;stroke-width:1;stroke-linecap:round;stroke-linejoin:miter;stroke:rgb(0%,0%,0%);stroke-opacity:1;stroke-miterlimit:10;" d="M 134.1 136.5 L 134.1 108.284375 C 134.1 106.078125 135.890625 104.284375 138.1 104.284375 L 177.203125 104.284375 C 177.20625 104.284375 177.2125 104.284375 177.215625 104.284375 L 187.09375 104.25 C 187.096875 104.25 187.1 104.25 187.10625 104.25 L 196.1 104.25 " transform="matrix(1.25,0,0,1.25,-120,-110)"/>
<path style="fill:none;stroke-width:1;stroke-linecap:butt;stroke-linejoin:miter;stroke:rgb(0%,0%,0%);stroke-opacity:1;stroke-miterlimit:10;" d="M 200.1 104.25 L 196.1 104.25 M 196.1 102.75 L 200.1 104.25 L 196.1 105.75 " transform="matrix(1.25,0,0,1.25,-120,-110)"/>
<path style="fill:none;stroke-width:1;stroke-linecap:round;stroke-linejoin:miter;stroke:rgb(0%,0%,0%);stroke-opacity:1;stroke-miterlimit:10;" d="M 277 104.25 L 286.9875 104.25 C 286.996875 104.25 287.003125 104.25 287.0125 104.25 L 296.95 104.2 C 296.95625 104.2 296.965625 104.2 296.96875 104.2 L 340.9 104.2 C 343.109375 104.2 344.9 105.99375 344.9 108.2 L 344.9 130.6 " transform="matrix(1.25,0,0,1.25,-120,-110)"/>
<path style="fill:none;stroke-width:1;stroke-linecap:butt;stroke-linejoin:miter;stroke:rgb(0%,0%,0%);stroke-opacity:1;stroke-miterlimit:10;" d="M 344.9 134.6 L 344.9 130.6 M 346.4 130.6 L 344.9 134.6 L 343.4 130.6 " transform="matrix(1.25,0,0,1.25,-120,-110)"/>
<path style="fill:none;stroke-width:1;stroke-linecap:round;stroke-linejoin:miter;stroke:rgb(0%,0%,0%);stroke-opacity:1;stroke-miterlimit:10;" d="M 344.9 168 L 344.9 195.903125 C 344.9 198.109375 343.109375 199.903125 340.9 199.903125 L 307.23125 199.903125 C 307.203125 199.903125 307.171875 199.903125 307.140625 199.903125 L 291.94375 200.25 C 291.9125 200.25 291.8875 200.25 291.85625 200.25 L 282.9 200.25 " transform="matrix(1.25,0,0,1.25,-120,-110)"/>
<path style="fill:none;stroke-width:1;stroke-linecap:butt;stroke-linejoin:miter;stroke:rgb(0%,0%,0%);stroke-opacity:1;stroke-miterlimit:10;" d="M 278.9 200.25 L 282.9 200.25 M 282.9 201.75 L 278.9 200.25 L 282.9 198.75 " transform="matrix(1.25,0,0,1.25,-120,-110)"/>
<path style="fill:none;stroke-width:1;stroke-linecap:round;stroke-linejoin:miter;stroke:rgb(0%,0%,0%);stroke-opacity:1;stroke-miterlimit:10;" d="M 202 200.25 L 192.01875 200.25 C 192.00625 200.25 191.99375 200.25 191.98125 200.25 L 185.55 200.315625 C 185.534375 200.315625 185.525 200.315625 185.50625 200.315625 L 138.1 200.315625 C 135.890625 200.315625 134.1 198.525 134.1 196.315625 L 134.1 173.9 " transform="matrix(1.25,0,0,1.25,-120,-110)"/>
<path style="fill:none;stroke-width:1;stroke-linecap:butt;stroke-linejoin:miter;stroke:rgb(0%,0%,0%);stroke-opacity:1;stroke-miterlimit:10;" d="M 134.1 169.9 L 134.1 173.9 M 132.6 173.9 L 134.1 169.9 L 135.6 173.9 " transform="matrix(1.25,0,0,1.25,-120,-110)"/>
</g>
</svg>
