<?xml version="1.0" encoding="UTF-8"?>
<svg xmlns="http://www.w3.org/2000/svg" xmlns:xlink="http://www.w3.org/1999/xlink" width="381pt" height="116pt" viewBox="0 0 381 116" version="1.1">
<g id="surface1">
<path style="fill:none;stroke-width:1;stroke-linecap:round;stroke-linejoin:miter;stroke:rgb(0%,0%,0%);stroke-opacity:1;stroke-miterlimit:10;" d="M 169 98.45 L 198.0625 98.45 " transform="matrix(1.25,0,0,1.25,-116.25,-86.25)"/>
<path style="fill:none;stroke-width:1;stroke-linecap:butt;stroke-linejoin:miter;stroke:rgb(0%,0%,0%);stroke-opacity:1;stroke-miterlimit:10;" d="M 202.0625 98.45 L 198.0625 98.45 M 198.0625 96.95 L 202.0625 98.45 L 198.0625 99.95 " transform="matrix(1.25,0,0,1.25,-116.25,-86.25)"/>
<path style="fill-rule:nonzero;fill:rgb(100%,100%,100%);fill-opacity:1;stroke-width:1;stroke-linecap:round;stroke-linejoin:round;stroke:rgb(0%,0%,0%);stroke-opacity:1;stroke-miterlimit:10;" d="M 93.66875 129.5 L 168.66875 129.5 L 168.66875 161 L 93.66875 161 Z M 93.66875 129.5 " transform="matrix(1.25,0,0,1.25,-116.25,-86.25)"/>
<path style=" stroke:none;fill-rule:nonzero;fill:rgb(0%,0%,0%);fill-opacity:1;" d="M 36.253906 98.4375 L 36.253906 90.390625 L 37.308594 90.390625 L 37.308594 98.4375 Z M 36.253906 98.4375 "/>
<path style=" stroke:none;fill-rule:nonzero;fill:rgb(0%,0%,0%);fill-opacity:1;" d="M 39.066406 98.4375 L 39.066406 92.597656 L 39.964844 92.597656 L 39.964844 93.4375 C 40.378906 92.804688 41 92.480469 41.820312 92.480469 C 42.171875 92.480469 42.488281 92.546875 42.777344 92.675781 C 43.074219 92.792969 43.292969 92.960938 43.441406 93.164062 C 43.582031 93.359375 43.683594 93.601562 43.753906 93.886719 C 43.792969 94.070312 43.8125 94.390625 43.8125 94.84375 L 43.8125 98.4375 L 42.816406 98.4375 L 42.816406 94.882812 C 42.816406 94.484375 42.777344 94.179688 42.699219 93.984375 C 42.621094 93.789062 42.484375 93.632812 42.289062 93.515625 C 42.09375 93.390625 41.863281 93.320312 41.605469 93.320312 C 41.183594 93.320312 40.824219 93.457031 40.511719 93.730469 C 40.207031 93.992188 40.0625 94.5 40.0625 95.253906 L 40.0625 98.4375 Z M 39.066406 98.4375 "/>
<path style=" stroke:none;fill-rule:nonzero;fill:rgb(0%,0%,0%);fill-opacity:1;" d="M 45.316406 100.664062 L 45.316406 92.597656 L 46.214844 92.597656 L 46.214844 93.359375 C 46.421875 93.0625 46.65625 92.84375 46.917969 92.695312 C 47.191406 92.554688 47.523438 92.480469 47.914062 92.480469 C 48.410156 92.480469 48.84375 92.613281 49.222656 92.871094 C 49.601562 93.121094 49.886719 93.476562 50.082031 93.945312 C 50.277344 94.414062 50.375 94.921875 50.375 95.46875 C 50.375 96.070312 50.265625 96.609375 50.042969 97.089844 C 49.835938 97.574219 49.527344 97.945312 49.125 98.203125 C 48.722656 98.445312 48.292969 98.574219 47.835938 98.574219 C 47.511719 98.574219 47.21875 98.5 46.957031 98.359375 C 46.695312 98.21875 46.480469 98.042969 46.3125 97.832031 L 46.3125 100.664062 Z M 46.214844 95.546875 C 46.214844 96.304688 46.363281 96.867188 46.664062 97.226562 C 46.976562 97.578125 47.347656 97.753906 47.777344 97.753906 C 48.207031 97.753906 48.578125 97.574219 48.890625 97.207031 C 49.214844 96.832031 49.378906 96.25 49.378906 95.46875 C 49.378906 94.726562 49.222656 94.175781 48.910156 93.808594 C 48.609375 93.433594 48.246094 93.242188 47.816406 93.242188 C 47.398438 93.242188 47.027344 93.445312 46.703125 93.847656 C 46.378906 94.238281 46.214844 94.804688 46.214844 95.546875 Z M 46.214844 95.546875 "/>
<path style=" stroke:none;fill-rule:nonzero;fill:rgb(0%,0%,0%);fill-opacity:1;" d="M 55.398438 98.4375 L 55.398438 97.578125 C 54.941406 98.242188 54.324219 98.574219 53.542969 98.574219 C 53.203125 98.574219 52.882812 98.507812 52.585938 98.378906 C 52.285156 98.238281 52.058594 98.066406 51.902344 97.871094 C 51.757812 97.675781 51.660156 97.4375 51.609375 97.148438 C 51.570312 96.953125 51.550781 96.640625 51.550781 96.210938 L 51.550781 92.597656 L 52.527344 92.597656 L 52.527344 95.839844 C 52.527344 96.363281 52.550781 96.710938 52.605469 96.875 C 52.65625 97.140625 52.78125 97.34375 52.976562 97.5 C 53.183594 97.648438 53.4375 97.714844 53.738281 97.714844 C 54.035156 97.714844 54.316406 97.648438 54.578125 97.5 C 54.835938 97.34375 55.019531 97.140625 55.125 96.875 C 55.226562 96.617188 55.28125 96.230469 55.28125 95.722656 L 55.28125 92.597656 L 56.277344 92.597656 L 56.277344 98.4375 Z M 55.398438 98.4375 "/>
<path style=" stroke:none;fill-rule:nonzero;fill:rgb(0%,0%,0%);fill-opacity:1;" d="M 59.992188 97.558594 L 60.128906 98.417969 C 59.839844 98.480469 59.589844 98.515625 59.386719 98.515625 C 59.019531 98.515625 58.742188 98.457031 58.546875 98.339844 C 58.351562 98.222656 58.203125 98.078125 58.117188 97.890625 C 58.039062 97.710938 58 97.324219 58 96.738281 L 58 93.378906 L 57.277344 93.378906 L 57.277344 92.597656 L 58 92.597656 L 58 91.152344 L 58.996094 90.566406 L 58.996094 92.597656 L 59.992188 92.597656 L 59.992188 93.378906 L 58.996094 93.378906 L 58.996094 96.777344 C 58.996094 97.066406 59.003906 97.246094 59.035156 97.324219 C 59.074219 97.402344 59.132812 97.46875 59.210938 97.519531 C 59.289062 97.574219 59.394531 97.597656 59.542969 97.597656 C 59.660156 97.597656 59.804688 97.585938 59.992188 97.558594 Z M 59.992188 97.558594 "/>
<path style="fill-rule:nonzero;fill:rgb(100%,100%,100%);fill-opacity:1;stroke-width:1;stroke-linecap:round;stroke-linejoin:round;stroke:rgb(0%,0%,0%);stroke-opacity:1;stroke-miterlimit:10;" d="M 106.625 70.7 L 181.625 70.7 L 181.625 102.2 L 106.625 102.2 Z M 106.625 70.7 " transform="matrix(1.25,0,0,1.25,-116.25,-86.25)"/>
<path style="fill-rule:nonzero;fill:rgb(100%,100%,100%);fill-opacity:1;stroke-width:1;stroke-linecap:round;stroke-linejoin:round;stroke:rgb(0%,0%,0%);stroke-opacity:1;stroke-miterlimit:10;" d="M 101 76.7 L 176 76.7 L 176 108.2 L 101 108.2 Z M 101 76.7 " transform="matrix(1.25,0,0,1.25,-116.25,-86.25)"/>
<path style="fill-rule:nonzero;fill:rgb(100%,100%,100%);fill-opacity:1;stroke-width:1;stroke-linecap:round;stroke-linejoin:round;stroke:rgb(0%,0%,0%);stroke-opacity:1;stroke-miterlimit:10;" d="M 94 82.7 L 169 82.7 L 169 114.2 L 94 114.2 Z M 94 82.7 " transform="matrix(1.25,0,0,1.25,-116.25,-86.25)"/>
<path style=" stroke:none;fill-rule:nonzero;fill:rgb(0%,0%,0%);fill-opacity:1;" d="M 14.347656 39.9375 L 14.347656 32.828125 L 11.710938 32.828125 L 11.710938 31.890625 L 18.078125 31.890625 L 18.078125 32.828125 L 15.421875 32.828125 L 15.421875 39.9375 Z M 14.347656 39.9375 "/>
<path style=" stroke:none;fill-rule:nonzero;fill:rgb(0%,0%,0%);fill-opacity:1;" d="M 18.617188 39.9375 L 18.617188 34.097656 L 19.515625 34.097656 L 19.515625 34.996094 C 19.734375 34.582031 19.945312 34.308594 20.140625 34.175781 C 20.335938 34.046875 20.550781 33.980469 20.785156 33.980469 C 21.105469 33.980469 21.449219 34.085938 21.800781 34.292969 L 21.449219 35.210938 C 21.214844 35.070312 20.96875 34.996094 20.726562 34.996094 C 20.515625 34.996094 20.320312 35.0625 20.140625 35.191406 C 19.96875 35.324219 19.847656 35.503906 19.769531 35.738281 C 19.660156 36.089844 19.613281 36.476562 19.613281 36.890625 L 19.613281 39.9375 Z M 18.617188 39.9375 "/>
<path style=" stroke:none;fill-rule:nonzero;fill:rgb(0%,0%,0%);fill-opacity:1;" d="M 26.191406 39.214844 C 25.824219 39.527344 25.472656 39.75 25.136719 39.878906 C 24.792969 40.007812 24.433594 40.074219 24.042969 40.074219 C 23.402344 40.074219 22.910156 39.917969 22.558594 39.605469 C 22.214844 39.292969 22.050781 38.890625 22.050781 38.394531 C 22.050781 38.109375 22.113281 37.847656 22.246094 37.613281 C 22.371094 37.378906 22.542969 37.195312 22.753906 37.046875 C 22.957031 36.90625 23.191406 36.792969 23.457031 36.714844 C 23.652344 36.675781 23.945312 36.632812 24.335938 36.578125 C 25.140625 36.492188 25.730469 36.375 26.113281 36.226562 C 26.113281 36.101562 26.113281 36.011719 26.113281 35.972656 C 26.113281 35.570312 26.019531 35.289062 25.839844 35.132812 C 25.574219 34.898438 25.199219 34.78125 24.707031 34.78125 C 24.238281 34.78125 23.890625 34.867188 23.671875 35.035156 C 23.445312 35.191406 23.285156 35.480469 23.183594 35.894531 L 22.226562 35.777344 C 22.304688 35.363281 22.441406 35.03125 22.636719 34.78125 C 22.839844 34.523438 23.132812 34.328125 23.515625 34.195312 C 23.90625 34.054688 24.34375 33.980469 24.84375 33.980469 C 25.351562 33.980469 25.75 34.039062 26.054688 34.15625 C 26.367188 34.273438 26.589844 34.425781 26.738281 34.605469 C 26.894531 34.777344 26.996094 34.996094 27.050781 35.269531 C 27.089844 35.441406 27.109375 35.738281 27.109375 36.167969 L 27.109375 37.496094 C 27.109375 38.410156 27.128906 38.992188 27.167969 39.234375 C 27.207031 39.484375 27.289062 39.71875 27.421875 39.9375 L 26.386719 39.9375 C 26.277344 39.734375 26.214844 39.488281 26.191406 39.214844 Z M 26.113281 37.007812 C 25.746094 37.15625 25.203125 37.277344 24.492188 37.378906 C 24.085938 37.445312 23.796875 37.515625 23.632812 37.59375 C 23.460938 37.664062 23.328125 37.765625 23.242188 37.90625 C 23.148438 38.054688 23.105469 38.210938 23.105469 38.375 C 23.105469 38.640625 23.203125 38.859375 23.398438 39.039062 C 23.59375 39.210938 23.886719 39.292969 24.277344 39.292969 C 24.652344 39.292969 24.988281 39.210938 25.292969 39.039062 C 25.589844 38.875 25.808594 38.644531 25.957031 38.355469 C 26.058594 38.136719 26.113281 37.808594 26.113281 37.378906 Z M 26.113281 37.007812 "/>
<path style=" stroke:none;fill-rule:nonzero;fill:rgb(0%,0%,0%);fill-opacity:1;" d="M 28.640625 33.023438 L 28.640625 31.890625 L 29.636719 31.890625 L 29.636719 33.023438 Z M 28.640625 39.9375 L 28.640625 34.097656 L 29.636719 34.097656 L 29.636719 39.9375 Z M 28.640625 39.9375 "/>
<path style=" stroke:none;fill-rule:nonzero;fill:rgb(0%,0%,0%);fill-opacity:1;" d="M 31.136719 39.9375 L 31.136719 34.097656 L 32.035156 34.097656 L 32.035156 34.9375 C 32.453125 34.304688 33.070312 33.980469 33.890625 33.980469 C 34.242188 33.980469 34.5625 34.046875 34.847656 34.175781 C 35.148438 34.292969 35.367188 34.460938 35.511719 34.664062 C 35.65625 34.859375 35.757812 35.101562 35.824219 35.386719 C 35.863281 35.570312 35.882812 35.890625 35.882812 36.34375 L 35.882812 39.9375 L 34.886719 39.9375 L 34.886719 36.382812 C 34.886719 35.984375 34.847656 35.679688 34.769531 35.484375 C 34.691406 35.289062 34.554688 35.132812 34.359375 35.015625 C 34.164062 34.890625 33.9375 34.820312 33.675781 34.820312 C 33.257812 34.820312 32.894531 34.957031 32.582031 35.230469 C 32.28125 35.492188 32.132812 36 32.132812 36.753906 L 32.132812 39.9375 Z M 31.136719 39.9375 "/>
<path style=" stroke:none;fill-rule:nonzero;fill:rgb(0%,0%,0%);fill-opacity:1;" d="M 37.394531 33.023438 L 37.394531 31.890625 L 38.390625 31.890625 L 38.390625 33.023438 Z M 37.394531 39.9375 L 37.394531 34.097656 L 38.390625 34.097656 L 38.390625 39.9375 Z M 37.394531 39.9375 "/>
<path style=" stroke:none;fill-rule:nonzero;fill:rgb(0%,0%,0%);fill-opacity:1;" d="M 39.894531 39.9375 L 39.894531 34.097656 L 40.792969 34.097656 L 40.792969 34.9375 C 41.207031 34.304688 41.828125 33.980469 42.648438 33.980469 C 43 33.980469 43.316406 34.046875 43.605469 34.175781 C 43.902344 34.292969 44.125 34.460938 44.269531 34.664062 C 44.410156 34.859375 44.515625 35.101562 44.582031 35.386719 C 44.621094 35.570312 44.640625 35.890625 44.640625 36.34375 L 44.640625 39.9375 L 43.644531 39.9375 L 43.644531 36.382812 C 43.644531 35.984375 43.605469 35.679688 43.527344 35.484375 C 43.449219 35.289062 43.3125 35.132812 43.117188 35.015625 C 42.921875 34.890625 42.691406 34.820312 42.433594 34.820312 C 42.015625 34.820312 41.652344 34.957031 41.339844 35.230469 C 41.039062 35.492188 40.890625 36 40.890625 36.753906 L 40.890625 39.9375 Z M 39.894531 39.9375 "/>
<path style=" stroke:none;fill-rule:nonzero;fill:rgb(0%,0%,0%);fill-opacity:1;" d="M 45.976562 40.425781 L 46.933594 40.5625 C 46.972656 40.859375 47.082031 41.074219 47.265625 41.207031 C 47.511719 41.386719 47.851562 41.480469 48.28125 41.480469 C 48.734375 41.480469 49.085938 41.386719 49.335938 41.207031 C 49.582031 41.023438 49.75 40.765625 49.84375 40.445312 C 49.894531 40.234375 49.914062 39.816406 49.902344 39.175781 C 49.472656 39.683594 48.9375 39.9375 48.300781 39.9375 C 47.492188 39.9375 46.867188 39.65625 46.425781 39.078125 C 45.996094 38.492188 45.78125 37.796875 45.78125 36.988281 C 45.78125 36.429688 45.878906 35.914062 46.074219 35.445312 C 46.28125 34.976562 46.574219 34.621094 46.953125 34.371094 C 47.328125 34.113281 47.777344 33.980469 48.300781 33.980469 C 48.988281 33.980469 49.554688 34.253906 50 34.800781 L 50 34.097656 L 50.917969 34.097656 L 50.917969 39.136719 C 50.917969 40.046875 50.820312 40.6875 50.625 41.070312 C 50.441406 41.445312 50.148438 41.742188 49.746094 41.96875 C 49.355469 42.1875 48.867188 42.300781 48.28125 42.300781 C 47.578125 42.300781 47.011719 42.144531 46.582031 41.832031 C 46.164062 41.519531 45.960938 41.050781 45.976562 40.425781 Z M 46.796875 36.910156 C 46.796875 37.679688 46.945312 38.238281 47.246094 38.589844 C 47.542969 38.941406 47.921875 39.117188 48.378906 39.117188 C 48.832031 39.117188 49.21875 38.941406 49.53125 38.589844 C 49.84375 38.238281 50 37.691406 50 36.949219 C 50 36.234375 49.835938 35.695312 49.511719 35.328125 C 49.199219 34.96875 48.820312 34.78125 48.378906 34.78125 C 47.933594 34.78125 47.558594 34.96875 47.246094 35.328125 C 46.945312 35.679688 46.796875 36.207031 46.796875 36.910156 Z M 46.796875 36.910156 "/>
<path style=" stroke:none;fill-rule:nonzero;fill:rgb(0%,0%,0%);fill-opacity:1;" d="M 55.535156 33.023438 L 55.535156 31.890625 L 56.53125 31.890625 L 56.53125 33.023438 Z M 55.535156 39.9375 L 55.535156 34.097656 L 56.53125 34.097656 L 56.53125 39.9375 Z M 55.535156 39.9375 "/>
<path style=" stroke:none;fill-rule:nonzero;fill:rgb(0%,0%,0%);fill-opacity:1;" d="M 58.035156 39.9375 L 58.035156 34.097656 L 58.933594 34.097656 L 58.933594 34.9375 C 59.347656 34.304688 59.96875 33.980469 60.789062 33.980469 C 61.140625 33.980469 61.457031 34.046875 61.746094 34.175781 C 62.042969 34.292969 62.261719 34.460938 62.410156 34.664062 C 62.550781 34.859375 62.652344 35.101562 62.722656 35.386719 C 62.761719 35.570312 62.78125 35.890625 62.78125 36.34375 L 62.78125 39.9375 L 61.785156 39.9375 L 61.785156 36.382812 C 61.785156 35.984375 61.746094 35.679688 61.667969 35.484375 C 61.589844 35.289062 61.453125 35.132812 61.257812 35.015625 C 61.0625 34.890625 60.832031 34.820312 60.574219 34.820312 C 60.152344 34.820312 59.792969 34.957031 59.480469 35.230469 C 59.175781 35.492188 59.03125 36 59.03125 36.753906 L 59.03125 39.9375 Z M 58.035156 39.9375 "/>
<path style=" stroke:none;fill-rule:nonzero;fill:rgb(0%,0%,0%);fill-opacity:1;" d="M 64.292969 42.164062 L 64.292969 34.097656 L 65.191406 34.097656 L 65.191406 34.859375 C 65.394531 34.5625 65.628906 34.34375 65.894531 34.195312 C 66.167969 34.054688 66.5 33.980469 66.890625 33.980469 C 67.382812 33.980469 67.816406 34.113281 68.199219 34.371094 C 68.574219 34.621094 68.863281 34.976562 69.058594 35.445312 C 69.253906 35.914062 69.351562 36.421875 69.351562 36.96875 C 69.351562 37.570312 69.238281 38.109375 69.019531 38.589844 C 68.808594 39.074219 68.5 39.445312 68.101562 39.703125 C 67.695312 39.949219 67.265625 40.074219 66.8125 40.074219 C 66.484375 40.074219 66.191406 40 65.933594 39.859375 C 65.667969 39.71875 65.453125 39.542969 65.289062 39.332031 L 65.289062 42.164062 Z M 65.191406 37.046875 C 65.191406 37.804688 65.335938 38.367188 65.640625 38.726562 C 65.953125 39.078125 66.324219 39.253906 66.753906 39.253906 C 67.183594 39.253906 67.554688 39.074219 67.867188 38.707031 C 68.1875 38.332031 68.355469 37.75 68.355469 36.96875 C 68.355469 36.226562 68.199219 35.675781 67.886719 35.308594 C 67.582031 34.933594 67.222656 34.742188 66.792969 34.742188 C 66.371094 34.742188 66 34.945312 65.679688 35.347656 C 65.351562 35.738281 65.191406 36.304688 65.191406 37.046875 Z M 65.191406 37.046875 "/>
<path style=" stroke:none;fill-rule:nonzero;fill:rgb(0%,0%,0%);fill-opacity:1;" d="M 74.378906 39.9375 L 74.378906 39.078125 C 73.917969 39.742188 73.304688 40.074219 72.523438 40.074219 C 72.179688 40.074219 71.863281 40.007812 71.566406 39.878906 C 71.261719 39.738281 71.039062 39.566406 70.882812 39.371094 C 70.734375 39.175781 70.636719 38.9375 70.589844 38.648438 C 70.550781 38.453125 70.53125 38.140625 70.53125 37.710938 L 70.53125 34.097656 L 71.507812 34.097656 L 71.507812 37.339844 C 71.507812 37.863281 71.53125 38.210938 71.585938 38.375 C 71.632812 38.640625 71.761719 38.84375 71.957031 39 C 72.160156 39.148438 72.414062 39.214844 72.71875 39.214844 C 73.015625 39.214844 73.292969 39.148438 73.558594 39 C 73.816406 38.84375 73.996094 38.640625 74.105469 38.375 C 74.207031 38.117188 74.261719 37.730469 74.261719 37.222656 L 74.261719 34.097656 L 75.257812 34.097656 L 75.257812 39.9375 Z M 74.378906 39.9375 "/>
<path style=" stroke:none;fill-rule:nonzero;fill:rgb(0%,0%,0%);fill-opacity:1;" d="M 78.976562 39.058594 L 79.113281 39.917969 C 78.824219 39.980469 78.574219 40.015625 78.371094 40.015625 C 78.003906 40.015625 77.726562 39.957031 77.53125 39.839844 C 77.335938 39.722656 77.1875 39.578125 77.101562 39.390625 C 77.023438 39.210938 76.984375 38.824219 76.984375 38.238281 L 76.984375 34.878906 L 76.261719 34.878906 L 76.261719 34.097656 L 76.984375 34.097656 L 76.984375 32.652344 L 77.980469 32.066406 L 77.980469 34.097656 L 78.976562 34.097656 L 78.976562 34.878906 L 77.980469 34.878906 L 77.980469 38.277344 C 77.980469 38.566406 77.988281 38.746094 78.019531 38.824219 C 78.058594 38.902344 78.117188 38.96875 78.195312 39.019531 C 78.273438 39.074219 78.378906 39.097656 78.527344 39.097656 C 78.644531 39.097656 78.789062 39.085938 78.976562 39.058594 Z M 78.976562 39.058594 "/>
<path style=" stroke:none;fill-rule:nonzero;fill:rgb(0%,0%,0%);fill-opacity:1;" d="M 79.542969 38.199219 L 80.519531 38.042969 C 80.566406 38.433594 80.71875 38.734375 80.96875 38.941406 C 81.226562 39.152344 81.578125 39.253906 82.023438 39.253906 C 82.476562 39.253906 82.8125 39.164062 83.039062 38.980469 C 83.257812 38.800781 83.371094 38.585938 83.371094 38.335938 C 83.371094 38.101562 83.273438 37.925781 83.078125 37.808594 C 82.929688 37.71875 82.59375 37.601562 82.0625 37.457031 C 81.328125 37.277344 80.820312 37.121094 80.539062 36.988281 C 80.265625 36.859375 80.054688 36.675781 79.914062 36.441406 C 79.765625 36.207031 79.699219 35.949219 79.699219 35.660156 C 79.699219 35.402344 79.757812 35.164062 79.875 34.9375 C 79.992188 34.71875 80.152344 34.527344 80.363281 34.371094 C 80.519531 34.269531 80.722656 34.175781 80.988281 34.097656 C 81.261719 34.019531 81.542969 33.980469 81.847656 33.980469 C 82.300781 33.980469 82.695312 34.046875 83.039062 34.175781 C 83.390625 34.308594 83.648438 34.484375 83.820312 34.703125 C 83.984375 34.929688 84.101562 35.226562 84.171875 35.601562 L 83.195312 35.738281 C 83.15625 35.441406 83.023438 35.207031 82.804688 35.035156 C 82.59375 34.867188 82.300781 34.78125 81.925781 34.78125 C 81.464844 34.78125 81.144531 34.859375 80.949219 35.015625 C 80.753906 35.164062 80.65625 35.335938 80.65625 35.542969 C 80.65625 35.675781 80.695312 35.789062 80.773438 35.875 C 80.851562 35.992188 80.976562 36.085938 81.164062 36.148438 C 81.25 36.1875 81.539062 36.273438 82.023438 36.402344 C 82.726562 36.585938 83.214844 36.734375 83.488281 36.851562 C 83.769531 36.96875 83.996094 37.144531 84.152344 37.378906 C 84.308594 37.601562 84.386719 37.882812 84.386719 38.21875 C 84.386719 38.5625 84.289062 38.875 84.09375 39.15625 C 83.898438 39.445312 83.613281 39.671875 83.253906 39.839844 C 82.902344 39.996094 82.492188 40.074219 82.023438 40.074219 C 81.265625 40.074219 80.683594 39.917969 80.285156 39.605469 C 79.894531 39.28125 79.644531 38.8125 79.542969 38.199219 Z M 79.542969 38.199219 "/>
<path style="fill-rule:nonzero;fill:rgb(100%,100%,100%);fill-opacity:1;stroke-width:1;stroke-linecap:round;stroke-linejoin:round;stroke:rgb(0%,0%,0%);stroke-opacity:1;stroke-miterlimit:10;" d="M 322.05 70.346875 L 397.05 70.346875 L 397.05 101.846875 L 322.05 101.846875 Z M 322.05 70.346875 " transform="matrix(1.25,0,0,1.25,-116.25,-86.25)"/>
<path style="fill-rule:nonzero;fill:rgb(100%,100%,100%);fill-opacity:1;stroke-width:1;stroke-linecap:round;stroke-linejoin:round;stroke:rgb(0%,0%,0%);stroke-opacity:1;stroke-miterlimit:10;" d="M 315.215625 77.05625 L 390.215625 77.05625 L 390.215625 108.55625 L 315.215625 108.55625 Z M 315.215625 77.05625 " transform="matrix(1.25,0,0,1.25,-116.25,-86.25)"/>
<path style="fill-rule:nonzero;fill:rgb(100%,100%,100%);fill-opacity:1;stroke-width:1;stroke-linecap:round;stroke-linejoin:round;stroke:rgb(0%,0%,0%);stroke-opacity:1;stroke-miterlimit:10;" d="M 308.215625 83.05625 L 383.215625 83.05625 L 383.215625 114.55625 L 308.215625 114.55625 Z M 308.215625 83.05625 " transform="matrix(1.25,0,0,1.25,-116.25,-86.25)"/>
<path style=" stroke:none;fill-rule:nonzero;fill:rgb(0%,0%,0%);fill-opacity:1;" d="M 282.433594 40.378906 L 282.433594 33.269531 L 279.796875 33.269531 L 279.796875 32.332031 L 286.164062 32.332031 L 286.164062 33.269531 L 283.507812 33.269531 L 283.507812 40.378906 Z M 282.433594 40.378906 "/>
<path style=" stroke:none;fill-rule:nonzero;fill:rgb(0%,0%,0%);fill-opacity:1;" d="M 286.699219 40.378906 L 286.699219 34.539062 L 287.597656 34.539062 L 287.597656 35.4375 C 287.816406 35.023438 288.027344 34.75 288.222656 34.617188 C 288.417969 34.492188 288.632812 34.421875 288.867188 34.421875 C 289.191406 34.421875 289.53125 34.53125 289.882812 34.734375 L 289.53125 35.652344 C 289.296875 35.511719 289.054688 35.4375 288.808594 35.4375 C 288.597656 35.4375 288.402344 35.507812 288.222656 35.632812 C 288.050781 35.765625 287.929688 35.945312 287.851562 36.179688 C 287.746094 36.53125 287.695312 36.917969 287.695312 37.332031 L 287.695312 40.378906 Z M 286.699219 40.378906 "/>
<path style=" stroke:none;fill-rule:nonzero;fill:rgb(0%,0%,0%);fill-opacity:1;" d="M 294.273438 39.65625 C 293.90625 39.96875 293.554688 40.195312 293.21875 40.320312 C 292.878906 40.449219 292.515625 40.515625 292.125 40.515625 C 291.484375 40.515625 290.992188 40.359375 290.640625 40.046875 C 290.300781 39.734375 290.132812 39.335938 290.132812 38.835938 C 290.132812 38.554688 290.195312 38.289062 290.328125 38.054688 C 290.457031 37.820312 290.625 37.636719 290.835938 37.488281 C 291.042969 37.347656 291.277344 37.234375 291.539062 37.15625 C 291.734375 37.117188 292.027344 37.074219 292.417969 37.019531 C 293.222656 36.933594 293.816406 36.816406 294.195312 36.667969 C 294.195312 36.542969 294.195312 36.453125 294.195312 36.414062 C 294.195312 36.015625 294.101562 35.730469 293.921875 35.574219 C 293.660156 35.339844 293.28125 35.222656 292.789062 35.222656 C 292.320312 35.222656 291.972656 35.3125 291.753906 35.476562 C 291.53125 35.632812 291.367188 35.921875 291.265625 36.335938 L 290.308594 36.21875 C 290.386719 35.804688 290.523438 35.472656 290.71875 35.222656 C 290.925781 34.964844 291.21875 34.769531 291.597656 34.636719 C 291.988281 34.496094 292.429688 34.421875 292.925781 34.421875 C 293.433594 34.421875 293.835938 34.480469 294.136719 34.597656 C 294.449219 34.714844 294.675781 34.867188 294.820312 35.046875 C 294.976562 35.21875 295.078125 35.4375 295.132812 35.710938 C 295.171875 35.882812 295.191406 36.179688 295.191406 36.609375 L 295.191406 37.9375 C 295.191406 38.851562 295.210938 39.433594 295.25 39.675781 C 295.289062 39.925781 295.371094 40.160156 295.503906 40.378906 L 294.46875 40.378906 C 294.363281 40.175781 294.296875 39.929688 294.273438 39.65625 Z M 294.195312 37.449219 C 293.828125 37.597656 293.289062 37.71875 292.574219 37.820312 C 292.167969 37.890625 291.882812 37.957031 291.714844 38.035156 C 291.542969 38.105469 291.414062 38.207031 291.324219 38.347656 C 291.230469 38.496094 291.1875 38.652344 291.1875 38.816406 C 291.1875 39.082031 291.285156 39.300781 291.480469 39.480469 C 291.675781 39.652344 291.96875 39.734375 292.359375 39.734375 C 292.734375 39.734375 293.074219 39.652344 293.375 39.480469 C 293.671875 39.316406 293.894531 39.085938 294.039062 38.796875 C 294.140625 38.578125 294.195312 38.25 294.195312 37.820312 Z M 294.195312 37.449219 "/>
<path style=" stroke:none;fill-rule:nonzero;fill:rgb(0%,0%,0%);fill-opacity:1;" d="M 296.722656 33.464844 L 296.722656 32.332031 L 297.71875 32.332031 L 297.71875 33.464844 Z M 296.722656 40.378906 L 296.722656 34.539062 L 297.71875 34.539062 L 297.71875 40.378906 Z M 296.722656 40.378906 "/>
<path style=" stroke:none;fill-rule:nonzero;fill:rgb(0%,0%,0%);fill-opacity:1;" d="M 299.222656 40.378906 L 299.222656 34.539062 L 300.121094 34.539062 L 300.121094 35.378906 C 300.535156 34.746094 301.15625 34.421875 301.976562 34.421875 C 302.328125 34.421875 302.644531 34.492188 302.933594 34.617188 C 303.230469 34.734375 303.449219 34.902344 303.597656 35.105469 C 303.738281 35.300781 303.839844 35.546875 303.910156 35.828125 C 303.949219 36.015625 303.96875 36.332031 303.96875 36.785156 L 303.96875 40.378906 L 302.972656 40.378906 L 302.972656 36.824219 C 302.972656 36.425781 302.933594 36.121094 302.855469 35.925781 C 302.777344 35.730469 302.640625 35.574219 302.445312 35.457031 C 302.25 35.332031 302.019531 35.261719 301.761719 35.261719 C 301.339844 35.261719 300.980469 35.398438 300.667969 35.671875 C 300.363281 35.9375 300.21875 36.445312 300.21875 37.195312 L 300.21875 40.378906 Z M 299.222656 40.378906 "/>
<path style=" stroke:none;fill-rule:nonzero;fill:rgb(0%,0%,0%);fill-opacity:1;" d="M 305.480469 33.464844 L 305.480469 32.332031 L 306.476562 32.332031 L 306.476562 33.464844 Z M 305.480469 40.378906 L 305.480469 34.539062 L 306.476562 34.539062 L 306.476562 40.378906 Z M 305.480469 40.378906 "/>
<path style=" stroke:none;fill-rule:nonzero;fill:rgb(0%,0%,0%);fill-opacity:1;" d="M 307.980469 40.378906 L 307.980469 34.539062 L 308.878906 34.539062 L 308.878906 35.378906 C 309.292969 34.746094 309.914062 34.421875 310.734375 34.421875 C 311.085938 34.421875 311.402344 34.492188 311.691406 34.617188 C 311.988281 34.734375 312.207031 34.902344 312.355469 35.105469 C 312.496094 35.300781 312.597656 35.546875 312.667969 35.828125 C 312.707031 36.015625 312.726562 36.332031 312.726562 36.785156 L 312.726562 40.378906 L 311.730469 40.378906 L 311.730469 36.824219 C 311.730469 36.425781 311.691406 36.121094 311.613281 35.925781 C 311.535156 35.730469 311.398438 35.574219 311.203125 35.457031 C 311.007812 35.332031 310.777344 35.261719 310.519531 35.261719 C 310.097656 35.261719 309.738281 35.398438 309.425781 35.671875 C 309.121094 35.9375 308.976562 36.445312 308.976562 37.195312 L 308.976562 40.378906 Z M 307.980469 40.378906 "/>
<path style=" stroke:none;fill-rule:nonzero;fill:rgb(0%,0%,0%);fill-opacity:1;" d="M 314.0625 40.867188 L 315.019531 41.003906 C 315.058594 41.304688 315.164062 41.519531 315.351562 41.648438 C 315.59375 41.832031 315.9375 41.921875 316.367188 41.921875 C 316.820312 41.921875 317.171875 41.832031 317.421875 41.648438 C 317.664062 41.464844 317.835938 41.210938 317.929688 40.886719 C 317.976562 40.679688 317.996094 40.257812 317.988281 39.617188 C 317.558594 40.125 317.019531 40.378906 316.386719 40.378906 C 315.574219 40.378906 314.949219 40.097656 314.511719 39.519531 C 314.082031 38.933594 313.867188 38.242188 313.867188 37.429688 C 313.867188 36.875 313.964844 36.355469 314.160156 35.886719 C 314.363281 35.417969 314.65625 35.0625 315.039062 34.8125 C 315.414062 34.554688 315.863281 34.421875 316.386719 34.421875 C 317.074219 34.421875 317.640625 34.695312 318.085938 35.242188 L 318.085938 34.539062 L 319.003906 34.539062 L 319.003906 39.578125 C 319.003906 40.488281 318.90625 41.132812 318.710938 41.511719 C 318.523438 41.890625 318.230469 42.1875 317.832031 42.410156 C 317.441406 42.632812 316.953125 42.742188 316.367188 42.742188 C 315.664062 42.742188 315.097656 42.585938 314.667969 42.273438 C 314.246094 41.960938 314.046875 41.492188 314.0625 40.867188 Z M 314.882812 37.351562 C 314.882812 38.125 315.027344 38.679688 315.332031 39.03125 C 315.628906 39.382812 316.003906 39.558594 316.464844 39.558594 C 316.917969 39.558594 317.304688 39.382812 317.617188 39.03125 C 317.929688 38.679688 318.085938 38.132812 318.085938 37.390625 C 318.085938 36.679688 317.917969 36.136719 317.597656 35.769531 C 317.285156 35.410156 316.902344 35.222656 316.464844 35.222656 C 316.019531 35.222656 315.644531 35.410156 315.332031 35.769531 C 315.027344 36.121094 314.882812 36.648438 314.882812 37.351562 Z M 314.882812 37.351562 "/>
<path style=" stroke:none;fill-rule:nonzero;fill:rgb(0%,0%,0%);fill-opacity:1;" d="M 323.601562 40.378906 L 323.601562 32.332031 L 324.578125 32.332031 L 324.578125 40.378906 Z M 323.601562 40.378906 "/>
<path style=" stroke:none;fill-rule:nonzero;fill:rgb(0%,0%,0%);fill-opacity:1;" d="M 329.925781 39.65625 C 329.5625 39.96875 329.210938 40.195312 328.871094 40.320312 C 328.53125 40.449219 328.167969 40.515625 327.777344 40.515625 C 327.140625 40.515625 326.644531 40.359375 326.292969 40.046875 C 325.953125 39.734375 325.785156 39.335938 325.785156 38.835938 C 325.785156 38.554688 325.851562 38.289062 325.980469 38.054688 C 326.109375 37.820312 326.28125 37.636719 326.488281 37.488281 C 326.695312 37.347656 326.929688 37.234375 327.191406 37.15625 C 327.386719 37.117188 327.679688 37.074219 328.070312 37.019531 C 328.878906 36.933594 329.46875 36.816406 329.847656 36.667969 C 329.847656 36.542969 329.847656 36.453125 329.847656 36.414062 C 329.847656 36.015625 329.757812 35.730469 329.574219 35.574219 C 329.3125 35.339844 328.9375 35.222656 328.441406 35.222656 C 327.972656 35.222656 327.628906 35.3125 327.40625 35.476562 C 327.183594 35.632812 327.023438 35.921875 326.917969 36.335938 L 325.960938 36.21875 C 326.039062 35.804688 326.175781 35.472656 326.371094 35.222656 C 326.578125 34.964844 326.871094 34.769531 327.25 34.636719 C 327.640625 34.496094 328.082031 34.421875 328.578125 34.421875 C 329.085938 34.421875 329.488281 34.480469 329.789062 34.597656 C 330.101562 34.714844 330.328125 34.867188 330.472656 35.046875 C 330.628906 35.21875 330.734375 35.4375 330.785156 35.710938 C 330.824219 35.882812 330.84375 36.179688 330.84375 36.609375 L 330.84375 37.9375 C 330.84375 38.851562 330.863281 39.433594 330.902344 39.675781 C 330.941406 39.925781 331.027344 40.160156 331.15625 40.378906 L 330.121094 40.378906 C 330.015625 40.175781 329.953125 39.929688 329.925781 39.65625 Z M 329.847656 37.449219 C 329.484375 37.597656 328.941406 37.71875 328.226562 37.820312 C 327.824219 37.890625 327.535156 37.957031 327.367188 38.035156 C 327.199219 38.105469 327.066406 38.207031 326.976562 38.347656 C 326.886719 38.496094 326.839844 38.652344 326.839844 38.816406 C 326.839844 39.082031 326.9375 39.300781 327.132812 39.480469 C 327.328125 39.652344 327.621094 39.734375 328.011719 39.734375 C 328.390625 39.734375 328.726562 39.652344 329.027344 39.480469 C 329.328125 39.316406 329.546875 39.085938 329.691406 38.796875 C 329.796875 38.578125 329.847656 38.25 329.847656 37.820312 Z M 329.847656 37.449219 "/>
<path style=" stroke:none;fill-rule:nonzero;fill:rgb(0%,0%,0%);fill-opacity:1;" d="M 333.292969 40.378906 L 332.375 40.378906 L 332.375 32.332031 L 333.351562 32.332031 L 333.351562 35.203125 C 333.769531 34.6875 334.300781 34.421875 334.953125 34.421875 C 335.316406 34.421875 335.65625 34.496094 335.96875 34.636719 C 336.292969 34.785156 336.5625 34.984375 336.769531 35.242188 C 336.976562 35.507812 337.140625 35.824219 337.257812 36.199219 C 337.375 36.566406 337.433594 36.957031 337.433594 37.371094 C 337.433594 38.378906 337.1875 39.148438 336.691406 39.695312 C 336.195312 40.242188 335.605469 40.515625 334.914062 40.515625 C 334.222656 40.515625 333.683594 40.234375 333.292969 39.65625 Z M 333.273438 37.410156 C 333.273438 38.113281 333.371094 38.621094 333.566406 38.933594 C 333.878906 39.441406 334.296875 39.695312 334.816406 39.695312 C 335.257812 39.695312 335.636719 39.511719 335.949219 39.128906 C 336.261719 38.753906 336.417969 38.191406 336.417969 37.449219 C 336.417969 36.699219 336.269531 36.136719 335.96875 35.769531 C 335.667969 35.410156 335.304688 35.222656 334.875 35.222656 C 334.433594 35.222656 334.054688 35.414062 333.742188 35.789062 C 333.429688 36.171875 333.273438 36.707031 333.273438 37.410156 Z M 333.273438 37.410156 "/>
<path style=" stroke:none;fill-rule:nonzero;fill:rgb(0%,0%,0%);fill-opacity:1;" d="M 342.617188 38.503906 L 343.652344 38.621094 C 343.480469 39.222656 343.175781 39.691406 342.734375 40.027344 C 342.304688 40.355469 341.75 40.515625 341.074219 40.515625 C 340.226562 40.515625 339.550781 40.257812 339.042969 39.734375 C 338.546875 39.203125 338.300781 38.460938 338.300781 37.507812 C 338.300781 36.53125 338.554688 35.78125 339.0625 35.242188 C 339.570312 34.695312 340.226562 34.421875 341.035156 34.421875 C 341.816406 34.421875 342.445312 34.691406 342.929688 35.222656 C 343.421875 35.746094 343.671875 36.488281 343.671875 37.449219 C 343.671875 37.519531 343.671875 37.605469 343.671875 37.722656 L 339.316406 37.722656 C 339.355469 38.363281 339.535156 38.851562 339.863281 39.1875 C 340.1875 39.53125 340.597656 39.695312 341.09375 39.695312 C 341.457031 39.695312 341.761719 39.609375 342.011719 39.421875 C 342.269531 39.226562 342.472656 38.925781 342.617188 38.503906 Z M 339.375 36.902344 L 342.636719 36.902344 C 342.597656 36.410156 342.472656 36.039062 342.265625 35.789062 C 341.953125 35.414062 341.542969 35.222656 341.035156 35.222656 C 340.578125 35.222656 340.195312 35.378906 339.882812 35.691406 C 339.582031 35.996094 339.414062 36.394531 339.375 36.902344 Z M 339.375 36.902344 "/>
<path style=" stroke:none;fill-rule:nonzero;fill:rgb(0%,0%,0%);fill-opacity:1;" d="M 344.871094 40.378906 L 344.871094 32.332031 L 345.847656 32.332031 L 345.847656 40.378906 Z M 344.871094 40.378906 "/>
<path style=" stroke:none;fill-rule:nonzero;fill:rgb(0%,0%,0%);fill-opacity:1;" d="M 347 38.640625 L 347.976562 38.484375 C 348.023438 38.875 348.175781 39.179688 348.425781 39.382812 C 348.683594 39.59375 349.035156 39.695312 349.480469 39.695312 C 349.933594 39.695312 350.269531 39.609375 350.496094 39.421875 C 350.714844 39.242188 350.828125 39.027344 350.828125 38.777344 C 350.828125 38.542969 350.730469 38.367188 350.535156 38.25 C 350.386719 38.164062 350.050781 38.046875 349.519531 37.898438 C 348.785156 37.71875 348.277344 37.5625 347.996094 37.429688 C 347.722656 37.304688 347.511719 37.117188 347.371094 36.882812 C 347.222656 36.648438 347.15625 36.390625 347.15625 36.101562 C 347.15625 35.84375 347.214844 35.605469 347.332031 35.378906 C 347.449219 35.160156 347.609375 34.96875 347.820312 34.8125 C 347.976562 34.710938 348.179688 34.617188 348.445312 34.539062 C 348.71875 34.460938 349 34.421875 349.304688 34.421875 C 349.757812 34.421875 350.152344 34.492188 350.496094 34.617188 C 350.847656 34.75 351.105469 34.925781 351.277344 35.144531 C 351.441406 35.371094 351.558594 35.667969 351.628906 36.042969 L 350.652344 36.179688 C 350.613281 35.882812 350.480469 35.648438 350.261719 35.476562 C 350.050781 35.3125 349.757812 35.222656 349.382812 35.222656 C 348.921875 35.222656 348.601562 35.300781 348.40625 35.457031 C 348.210938 35.605469 348.113281 35.78125 348.113281 35.984375 C 348.113281 36.117188 348.152344 36.230469 348.230469 36.316406 C 348.308594 36.433594 348.433594 36.527344 348.621094 36.589844 C 348.707031 36.628906 348.996094 36.71875 349.480469 36.84375 C 350.183594 37.03125 350.671875 37.175781 350.945312 37.292969 C 351.226562 37.410156 351.453125 37.585938 351.609375 37.820312 C 351.765625 38.046875 351.84375 38.324219 351.84375 38.660156 C 351.84375 39.003906 351.746094 39.316406 351.550781 39.597656 C 351.355469 39.886719 351.070312 40.117188 350.710938 40.28125 C 350.359375 40.4375 349.949219 40.515625 349.480469 40.515625 C 348.722656 40.515625 348.140625 40.359375 347.742188 40.046875 C 347.351562 39.726562 347.101562 39.257812 347 38.640625 Z M 347 38.640625 "/>
<path style="fill-rule:nonzero;fill:rgb(69.803922%,85.098039%,100%);fill-opacity:1;stroke-width:1;stroke-linecap:round;stroke-linejoin:round;stroke:rgb(0%,0%,0%);stroke-opacity:1;stroke-miterlimit:10;" d="M 203.9625 82.7 L 278.9625 82.7 L 278.9625 114.2 L 203.9625 114.2 Z M 203.9625 82.7 " transform="matrix(1.25,0,0,1.25,-116.25,-86.25)"/>
<path style=" stroke:none;fill-rule:nonzero;fill:rgb(0%,0%,0%);fill-opacity:1;" d="M 157.945312 31.367188 L 158.941406 31.269531 C 158.988281 31.675781 159.101562 32.007812 159.273438 32.265625 C 159.453125 32.527344 159.726562 32.734375 160.09375 32.890625 C 160.453125 33.046875 160.863281 33.125 161.324219 33.125 C 161.722656 33.125 162.085938 33.066406 162.398438 32.949219 C 162.710938 32.832031 162.945312 32.671875 163.101562 32.460938 C 163.257812 32.242188 163.335938 32.007812 163.335938 31.757812 C 163.335938 31.511719 163.257812 31.296875 163.101562 31.113281 C 162.953125 30.917969 162.714844 30.757812 162.378906 30.625 C 162.167969 30.535156 161.695312 30.40625 160.953125 30.234375 C 160.210938 30.054688 159.6875 29.882812 159.390625 29.726562 C 159.007812 29.53125 158.726562 29.285156 158.53125 28.984375 C 158.34375 28.6875 158.257812 28.347656 158.257812 27.96875 C 158.257812 27.566406 158.363281 27.1875 158.589844 26.835938 C 158.824219 26.484375 159.160156 26.21875 159.605469 26.035156 C 160.042969 25.855469 160.542969 25.761719 161.089844 25.761719 C 161.683594 25.761719 162.210938 25.859375 162.671875 26.054688 C 163.125 26.238281 163.472656 26.519531 163.707031 26.894531 C 163.949219 27.273438 164.085938 27.695312 164.117188 28.164062 L 163.082031 28.242188 C 163.027344 27.734375 162.847656 27.351562 162.535156 27.089844 C 162.222656 26.832031 161.753906 26.699219 161.128906 26.699219 C 160.488281 26.699219 160.019531 26.816406 159.722656 27.050781 C 159.417969 27.285156 159.273438 27.574219 159.273438 27.910156 C 159.273438 28.199219 159.375 28.433594 159.585938 28.613281 C 159.789062 28.808594 160.328125 29.003906 161.1875 29.199219 C 162.054688 29.394531 162.65625 29.566406 162.984375 29.707031 C 163.453125 29.917969 163.792969 30.191406 164.019531 30.527344 C 164.238281 30.855469 164.351562 31.238281 164.351562 31.679688 C 164.351562 32.097656 164.222656 32.5 163.980469 32.890625 C 163.730469 33.269531 163.378906 33.5625 162.925781 33.769531 C 162.464844 33.972656 161.953125 34.082031 161.382812 34.082031 C 160.648438 34.082031 160.039062 33.972656 159.546875 33.769531 C 159.046875 33.550781 158.65625 33.230469 158.375 32.8125 C 158.101562 32.382812 157.953125 31.902344 157.945312 31.367188 Z M 157.945312 31.367188 "/>
<path style=" stroke:none;fill-rule:nonzero;fill:rgb(0%,0%,0%);fill-opacity:1;" d="M 169.511719 33.945312 L 169.511719 33.085938 C 169.050781 33.75 168.4375 34.082031 167.65625 34.082031 C 167.3125 34.082031 166.996094 34.011719 166.699219 33.886719 C 166.394531 33.746094 166.171875 33.574219 166.015625 33.378906 C 165.867188 33.183594 165.769531 32.945312 165.722656 32.65625 C 165.683594 32.460938 165.664062 32.148438 165.664062 31.71875 L 165.664062 28.105469 L 166.640625 28.105469 L 166.640625 31.347656 C 166.640625 31.871094 166.664062 32.214844 166.71875 32.382812 C 166.765625 32.644531 166.894531 32.851562 167.089844 33.007812 C 167.292969 33.152344 167.546875 33.222656 167.851562 33.222656 C 168.148438 33.222656 168.425781 33.152344 168.691406 33.007812 C 168.949219 32.851562 169.128906 32.644531 169.238281 32.382812 C 169.339844 32.125 169.394531 31.738281 169.394531 31.230469 L 169.394531 28.105469 L 170.390625 28.105469 L 170.390625 33.945312 Z M 169.511719 33.945312 "/>
<path style=" stroke:none;fill-rule:nonzero;fill:rgb(0%,0%,0%);fill-opacity:1;" d="M 171.941406 36.171875 L 171.941406 28.105469 L 172.839844 28.105469 L 172.839844 28.867188 C 173.042969 28.570312 173.277344 28.347656 173.542969 28.203125 C 173.816406 28.0625 174.148438 27.988281 174.539062 27.988281 C 175.03125 27.988281 175.464844 28.121094 175.847656 28.378906 C 176.222656 28.628906 176.511719 28.984375 176.707031 29.453125 C 176.902344 29.921875 177 30.429688 177 30.976562 C 177 31.578125 176.886719 32.117188 176.667969 32.597656 C 176.457031 33.082031 176.148438 33.453125 175.75 33.710938 C 175.34375 33.953125 174.914062 34.082031 174.460938 34.082031 C 174.132812 34.082031 173.839844 34.007812 173.582031 33.867188 C 173.316406 33.726562 173.101562 33.550781 172.9375 33.339844 L 172.9375 36.171875 Z M 172.839844 31.054688 C 172.839844 31.8125 172.984375 32.371094 173.289062 32.734375 C 173.601562 33.085938 173.972656 33.261719 174.402344 33.261719 C 174.832031 33.261719 175.203125 33.082031 175.515625 32.714844 C 175.835938 32.339844 176.003906 31.757812 176.003906 30.976562 C 176.003906 30.234375 175.847656 29.683594 175.535156 29.316406 C 175.230469 28.941406 174.871094 28.75 174.441406 28.75 C 174.019531 28.75 173.648438 28.953125 173.328125 29.355469 C 173 29.746094 172.839844 30.3125 172.839844 31.054688 Z M 172.839844 31.054688 "/>
<path style=" stroke:none;fill-rule:nonzero;fill:rgb(0%,0%,0%);fill-opacity:1;" d="M 182.179688 32.070312 L 183.214844 32.1875 C 183.046875 32.789062 182.738281 33.257812 182.296875 33.59375 C 181.867188 33.921875 181.3125 34.082031 180.636719 34.082031 C 179.789062 34.082031 179.113281 33.824219 178.605469 33.300781 C 178.109375 32.769531 177.863281 32.027344 177.863281 31.074219 C 177.863281 30.097656 178.117188 29.34375 178.625 28.808594 C 179.132812 28.261719 179.789062 27.988281 180.597656 27.988281 C 181.378906 27.988281 182.011719 28.257812 182.492188 28.789062 C 182.988281 29.3125 183.234375 30.054688 183.234375 31.015625 C 183.234375 31.082031 183.234375 31.171875 183.234375 31.289062 L 178.878906 31.289062 C 178.917969 31.929688 179.101562 32.417969 179.425781 32.753906 C 179.75 33.09375 180.160156 33.261719 180.65625 33.261719 C 181.019531 33.261719 181.328125 33.171875 181.574219 32.988281 C 181.835938 32.792969 182.035156 32.488281 182.179688 32.070312 Z M 178.9375 30.46875 L 182.199219 30.46875 C 182.160156 29.976562 182.035156 29.605469 181.828125 29.355469 C 181.515625 28.980469 181.105469 28.789062 180.597656 28.789062 C 180.140625 28.789062 179.757812 28.945312 179.445312 29.257812 C 179.144531 29.558594 178.976562 29.960938 178.9375 30.46875 Z M 178.9375 30.46875 "/>
<path style=" stroke:none;fill-rule:nonzero;fill:rgb(0%,0%,0%);fill-opacity:1;" d="M 184.433594 33.945312 L 184.433594 28.105469 L 185.332031 28.105469 L 185.332031 29.003906 C 185.554688 28.589844 185.761719 28.316406 185.957031 28.183594 C 186.152344 28.054688 186.367188 27.988281 186.601562 27.988281 C 186.925781 27.988281 187.265625 28.09375 187.617188 28.300781 L 187.265625 29.21875 C 187.03125 29.078125 186.789062 29.003906 186.542969 29.003906 C 186.335938 29.003906 186.140625 29.070312 185.957031 29.199219 C 185.789062 29.332031 185.664062 29.511719 185.585938 29.746094 C 185.480469 30.097656 185.429688 30.484375 185.429688 30.898438 L 185.429688 33.945312 Z M 184.433594 33.945312 "/>
<path style=" stroke:none;fill-rule:nonzero;fill:rgb(0%,0%,0%);fill-opacity:1;" d="M 189.820312 33.945312 L 187.59375 28.105469 L 188.648438 28.105469 L 189.898438 31.601562 C 190.027344 31.980469 190.152344 32.371094 190.269531 32.773438 C 190.359375 32.476562 190.484375 32.109375 190.640625 31.679688 L 191.929688 28.105469 L 192.945312 28.105469 L 190.738281 33.945312 Z M 189.820312 33.945312 "/>
<path style=" stroke:none;fill-rule:nonzero;fill:rgb(0%,0%,0%);fill-opacity:1;" d="M 193.824219 27.03125 L 193.824219 25.898438 L 194.820312 25.898438 L 194.820312 27.03125 Z M 193.824219 33.945312 L 193.824219 28.105469 L 194.820312 28.105469 L 194.820312 33.945312 Z M 193.824219 33.945312 "/>
<path style=" stroke:none;fill-rule:nonzero;fill:rgb(0%,0%,0%);fill-opacity:1;" d="M 195.933594 32.207031 L 196.910156 32.050781 C 196.960938 32.441406 197.113281 32.742188 197.359375 32.949219 C 197.621094 33.160156 197.972656 33.261719 198.414062 33.261719 C 198.871094 33.261719 199.207031 33.171875 199.429688 32.988281 C 199.652344 32.808594 199.761719 32.59375 199.761719 32.34375 C 199.761719 32.109375 199.664062 31.933594 199.46875 31.816406 C 199.324219 31.726562 198.988281 31.609375 198.453125 31.464844 C 197.722656 31.285156 197.214844 31.128906 196.929688 30.996094 C 196.65625 30.867188 196.449219 30.683594 196.304688 30.449219 C 196.160156 30.214844 196.089844 29.957031 196.089844 29.667969 C 196.089844 29.410156 196.148438 29.167969 196.265625 28.945312 C 196.382812 28.726562 196.546875 28.535156 196.753906 28.378906 C 196.910156 28.277344 197.117188 28.183594 197.378906 28.105469 C 197.652344 28.027344 197.9375 27.988281 198.238281 27.988281 C 198.695312 27.988281 199.089844 28.054688 199.429688 28.183594 C 199.78125 28.316406 200.042969 28.492188 200.210938 28.710938 C 200.378906 28.933594 200.496094 29.234375 200.5625 29.609375 L 199.585938 29.746094 C 199.546875 29.449219 199.417969 29.214844 199.195312 29.042969 C 198.988281 28.875 198.695312 28.789062 198.316406 28.789062 C 197.859375 28.789062 197.535156 28.867188 197.339844 29.023438 C 197.144531 29.167969 197.046875 29.34375 197.046875 29.550781 C 197.046875 29.683594 197.085938 29.792969 197.164062 29.882812 C 197.242188 30 197.371094 30.09375 197.554688 30.15625 C 197.644531 30.195312 197.933594 30.28125 198.414062 30.410156 C 199.117188 30.59375 199.605469 30.742188 199.878906 30.859375 C 200.164062 30.976562 200.386719 31.152344 200.542969 31.386719 C 200.699219 31.609375 200.777344 31.890625 200.777344 32.226562 C 200.777344 32.566406 200.679688 32.878906 200.484375 33.164062 C 200.289062 33.453125 200.007812 33.679688 199.644531 33.847656 C 199.292969 34.003906 198.882812 34.082031 198.414062 34.082031 C 197.660156 34.082031 197.078125 33.925781 196.675781 33.613281 C 196.285156 33.289062 196.039062 32.820312 195.933594 32.207031 Z M 195.933594 32.207031 "/>
<path style=" stroke:none;fill-rule:nonzero;fill:rgb(0%,0%,0%);fill-opacity:1;" d="M 205.933594 32.070312 L 206.96875 32.1875 C 206.800781 32.789062 206.492188 33.257812 206.050781 33.59375 C 205.621094 33.921875 205.066406 34.082031 204.390625 34.082031 C 203.542969 34.082031 202.867188 33.824219 202.359375 33.300781 C 201.863281 32.769531 201.617188 32.027344 201.617188 31.074219 C 201.617188 30.097656 201.871094 29.34375 202.378906 28.808594 C 202.886719 28.261719 203.542969 27.988281 204.351562 27.988281 C 205.132812 27.988281 205.765625 28.257812 206.246094 28.789062 C 206.742188 29.3125 206.988281 30.054688 206.988281 31.015625 C 206.988281 31.082031 206.988281 31.171875 206.988281 31.289062 L 202.632812 31.289062 C 202.671875 31.929688 202.855469 32.417969 203.179688 32.753906 C 203.503906 33.09375 203.914062 33.261719 204.410156 33.261719 C 204.773438 33.261719 205.082031 33.171875 205.328125 32.988281 C 205.589844 32.792969 205.789062 32.488281 205.933594 32.070312 Z M 202.691406 30.46875 L 205.953125 30.46875 C 205.914062 29.976562 205.789062 29.605469 205.582031 29.355469 C 205.269531 28.980469 204.859375 28.789062 204.351562 28.789062 C 203.894531 28.789062 203.511719 28.945312 203.199219 29.257812 C 202.898438 29.558594 202.730469 29.960938 202.691406 30.46875 Z M 202.691406 30.46875 "/>
<path style=" stroke:none;fill-rule:nonzero;fill:rgb(0%,0%,0%);fill-opacity:1;" d="M 211.996094 33.945312 L 211.996094 33.203125 C 211.617188 33.789062 211.070312 34.082031 210.355469 34.082031 C 209.898438 34.082031 209.476562 33.949219 209.085938 33.691406 C 208.695312 33.433594 208.386719 33.074219 208.167969 32.617188 C 207.957031 32.164062 207.855469 31.636719 207.855469 31.035156 C 207.855469 30.449219 207.953125 29.921875 208.148438 29.453125 C 208.34375 28.972656 208.628906 28.609375 209.007812 28.359375 C 209.398438 28.113281 209.832031 27.988281 210.316406 27.988281 C 210.667969 27.988281 210.980469 28.0625 211.253906 28.203125 C 211.527344 28.347656 211.746094 28.542969 211.917969 28.789062 L 211.917969 25.898438 L 212.914062 25.898438 L 212.914062 33.945312 Z M 208.871094 31.035156 C 208.871094 31.777344 209.027344 32.339844 209.339844 32.714844 C 209.652344 33.082031 210.023438 33.261719 210.453125 33.261719 C 210.882812 33.261719 211.246094 33.085938 211.546875 32.734375 C 211.859375 32.382812 212.015625 31.84375 212.015625 31.113281 C 212.015625 30.320312 211.859375 29.734375 211.546875 29.355469 C 211.234375 28.980469 210.855469 28.789062 210.414062 28.789062 C 209.96875 28.789062 209.597656 28.972656 209.300781 29.335938 C 209.011719 29.703125 208.871094 30.269531 208.871094 31.035156 Z M 208.871094 31.035156 "/>
<path style=" stroke:none;fill-rule:nonzero;fill:rgb(0%,0%,0%);fill-opacity:1;" d="M 166.285156 46.8125 L 166.285156 38.765625 L 167.261719 38.765625 L 167.261719 46.8125 Z M 166.285156 46.8125 "/>
<path style=" stroke:none;fill-rule:nonzero;fill:rgb(0%,0%,0%);fill-opacity:1;" d="M 172.789062 44.9375 L 173.824219 45.054688 C 173.65625 45.65625 173.347656 46.125 172.90625 46.460938 C 172.476562 46.789062 171.921875 46.949219 171.246094 46.949219 C 170.398438 46.949219 169.722656 46.691406 169.214844 46.167969 C 168.71875 45.636719 168.472656 44.894531 168.472656 43.941406 C 168.472656 42.964844 168.726562 42.210938 169.234375 41.675781 C 169.742188 41.128906 170.398438 40.855469 171.207031 40.855469 C 171.988281 40.855469 172.621094 41.125 173.101562 41.65625 C 173.597656 42.179688 173.84375 42.921875 173.84375 43.882812 C 173.84375 43.953125 173.84375 44.039062 173.84375 44.15625 L 169.488281 44.15625 C 169.527344 44.796875 169.710938 45.285156 170.035156 45.621094 C 170.359375 45.960938 170.769531 46.128906 171.265625 46.128906 C 171.628906 46.128906 171.9375 46.039062 172.183594 45.855469 C 172.445312 45.660156 172.644531 45.359375 172.789062 44.9375 Z M 169.546875 43.335938 L 172.808594 43.335938 C 172.769531 42.84375 172.644531 42.472656 172.4375 42.222656 C 172.125 41.847656 171.714844 41.65625 171.207031 41.65625 C 170.75 41.65625 170.367188 41.8125 170.054688 42.125 C 169.753906 42.429688 169.585938 42.828125 169.546875 43.335938 Z M 169.546875 43.335938 "/>
<path style=" stroke:none;fill-rule:nonzero;fill:rgb(0%,0%,0%);fill-opacity:1;" d="M 178.871094 46.089844 C 178.503906 46.402344 178.152344 46.625 177.816406 46.753906 C 177.476562 46.882812 177.113281 46.949219 176.722656 46.949219 C 176.082031 46.949219 175.589844 46.792969 175.238281 46.480469 C 174.898438 46.167969 174.730469 45.765625 174.730469 45.269531 C 174.730469 44.984375 174.792969 44.722656 174.925781 44.488281 C 175.054688 44.253906 175.222656 44.070312 175.433594 43.921875 C 175.640625 43.78125 175.875 43.667969 176.136719 43.589844 C 176.332031 43.550781 176.625 43.507812 177.015625 43.453125 C 177.820312 43.367188 178.414062 43.25 178.792969 43.101562 C 178.792969 42.976562 178.792969 42.886719 178.792969 42.847656 C 178.792969 42.445312 178.699219 42.164062 178.519531 42.007812 C 178.257812 41.773438 177.878906 41.65625 177.386719 41.65625 C 176.917969 41.65625 176.570312 41.742188 176.351562 41.910156 C 176.128906 42.066406 175.964844 42.355469 175.863281 42.769531 L 174.90625 42.652344 C 174.984375 42.238281 175.121094 41.90625 175.316406 41.65625 C 175.523438 41.398438 175.816406 41.203125 176.195312 41.070312 C 176.585938 40.929688 177.027344 40.855469 177.523438 40.855469 C 178.03125 40.855469 178.433594 40.914062 178.734375 41.03125 C 179.046875 41.148438 179.273438 41.300781 179.417969 41.480469 C 179.574219 41.652344 179.675781 41.871094 179.730469 42.144531 C 179.769531 42.316406 179.789062 42.613281 179.789062 43.042969 L 179.789062 44.371094 C 179.789062 45.285156 179.808594 45.867188 179.847656 46.109375 C 179.886719 46.359375 179.96875 46.59375 180.101562 46.8125 L 179.066406 46.8125 C 178.960938 46.609375 178.894531 46.363281 178.871094 46.089844 Z M 178.792969 43.882812 C 178.425781 44.03125 177.886719 44.152344 177.171875 44.253906 C 176.765625 44.320312 176.480469 44.390625 176.3125 44.46875 C 176.140625 44.539062 176.011719 44.640625 175.921875 44.78125 C 175.828125 44.929688 175.785156 45.085938 175.785156 45.25 C 175.785156 45.515625 175.882812 45.734375 176.078125 45.914062 C 176.273438 46.085938 176.566406 46.167969 176.957031 46.167969 C 177.332031 46.167969 177.671875 46.085938 177.972656 45.914062 C 178.269531 45.75 178.492188 45.519531 178.636719 45.230469 C 178.738281 45.011719 178.792969 44.683594 178.792969 44.253906 Z M 178.792969 43.882812 "/>
<path style=" stroke:none;fill-rule:nonzero;fill:rgb(0%,0%,0%);fill-opacity:1;" d="M 181.300781 46.8125 L 181.300781 40.972656 L 182.199219 40.972656 L 182.199219 41.871094 C 182.417969 41.457031 182.628906 41.183594 182.824219 41.050781 C 183.019531 40.921875 183.234375 40.855469 183.46875 40.855469 C 183.789062 40.855469 184.132812 40.960938 184.484375 41.167969 L 184.132812 42.085938 C 183.898438 41.945312 183.652344 41.871094 183.410156 41.871094 C 183.199219 41.871094 183.003906 41.9375 182.824219 42.066406 C 182.652344 42.199219 182.53125 42.378906 182.453125 42.613281 C 182.34375 42.964844 182.296875 43.351562 182.296875 43.765625 L 182.296875 46.8125 Z M 181.300781 46.8125 "/>
<path style=" stroke:none;fill-rule:nonzero;fill:rgb(0%,0%,0%);fill-opacity:1;" d="M 185.066406 46.8125 L 185.066406 40.972656 L 185.964844 40.972656 L 185.964844 41.8125 C 186.378906 41.179688 187 40.855469 187.820312 40.855469 C 188.171875 40.855469 188.488281 40.921875 188.777344 41.050781 C 189.074219 41.167969 189.296875 41.335938 189.441406 41.539062 C 189.582031 41.734375 189.6875 41.976562 189.753906 42.261719 C 189.792969 42.445312 189.8125 42.765625 189.8125 43.21875 L 189.8125 46.8125 L 188.816406 46.8125 L 188.816406 43.257812 C 188.816406 42.859375 188.777344 42.554688 188.699219 42.359375 C 188.621094 42.164062 188.484375 42.007812 188.289062 41.890625 C 188.09375 41.765625 187.863281 41.695312 187.605469 41.695312 C 187.1875 41.695312 186.824219 41.832031 186.511719 42.105469 C 186.210938 42.367188 186.0625 42.875 186.0625 43.628906 L 186.0625 46.8125 Z M 185.066406 46.8125 "/>
<path style=" stroke:none;fill-rule:nonzero;fill:rgb(0%,0%,0%);fill-opacity:1;" d="M 191.324219 39.898438 L 191.324219 38.765625 L 192.320312 38.765625 L 192.320312 39.898438 Z M 191.324219 46.8125 L 191.324219 40.972656 L 192.320312 40.972656 L 192.320312 46.8125 Z M 191.324219 46.8125 "/>
<path style=" stroke:none;fill-rule:nonzero;fill:rgb(0%,0%,0%);fill-opacity:1;" d="M 193.824219 46.8125 L 193.824219 40.972656 L 194.722656 40.972656 L 194.722656 41.8125 C 195.136719 41.179688 195.757812 40.855469 196.578125 40.855469 C 196.929688 40.855469 197.246094 40.921875 197.535156 41.050781 C 197.832031 41.167969 198.050781 41.335938 198.199219 41.539062 C 198.339844 41.734375 198.441406 41.976562 198.511719 42.261719 C 198.550781 42.445312 198.570312 42.765625 198.570312 43.21875 L 198.570312 46.8125 L 197.574219 46.8125 L 197.574219 43.257812 C 197.574219 42.859375 197.535156 42.554688 197.457031 42.359375 C 197.378906 42.164062 197.242188 42.007812 197.046875 41.890625 C 196.851562 41.765625 196.621094 41.695312 196.363281 41.695312 C 195.941406 41.695312 195.582031 41.832031 195.269531 42.105469 C 194.964844 42.367188 194.820312 42.875 194.820312 43.628906 L 194.820312 46.8125 Z M 193.824219 46.8125 "/>
<path style=" stroke:none;fill-rule:nonzero;fill:rgb(0%,0%,0%);fill-opacity:1;" d="M 199.90625 47.300781 L 200.863281 47.4375 C 200.902344 47.734375 201.007812 47.949219 201.195312 48.082031 C 201.4375 48.261719 201.78125 48.355469 202.210938 48.355469 C 202.664062 48.355469 203.015625 48.261719 203.265625 48.082031 C 203.507812 47.898438 203.679688 47.640625 203.773438 47.320312 C 203.820312 47.109375 203.839844 46.691406 203.832031 46.050781 C 203.402344 46.558594 202.863281 46.8125 202.230469 46.8125 C 201.417969 46.8125 200.792969 46.53125 200.355469 45.953125 C 199.925781 45.367188 199.710938 44.671875 199.710938 43.863281 C 199.710938 43.304688 199.808594 42.789062 200.003906 42.320312 C 200.207031 41.851562 200.5 41.496094 200.882812 41.246094 C 201.257812 40.988281 201.707031 40.855469 202.230469 40.855469 C 202.917969 40.855469 203.484375 41.128906 203.929688 41.675781 L 203.929688 40.972656 L 204.847656 40.972656 L 204.847656 46.011719 C 204.847656 46.921875 204.75 47.5625 204.554688 47.945312 C 204.367188 48.320312 204.074219 48.617188 203.675781 48.84375 C 203.285156 49.0625 202.796875 49.175781 202.210938 49.175781 C 201.507812 49.175781 200.941406 49.019531 200.511719 48.707031 C 200.089844 48.394531 199.890625 47.925781 199.90625 47.300781 Z M 200.726562 43.785156 C 200.726562 44.554688 200.871094 45.113281 201.175781 45.464844 C 201.472656 45.816406 201.847656 45.992188 202.308594 45.992188 C 202.761719 45.992188 203.148438 45.816406 203.460938 45.464844 C 203.773438 45.113281 203.929688 44.566406 203.929688 43.824219 C 203.929688 43.109375 203.761719 42.570312 203.441406 42.203125 C 203.128906 41.84375 202.746094 41.65625 202.308594 41.65625 C 201.863281 41.65625 201.488281 41.84375 201.175781 42.203125 C 200.871094 42.554688 200.726562 43.082031 200.726562 43.785156 Z M 200.726562 43.785156 "/>
<path style="fill-rule:nonzero;fill:rgb(40%,74.901961%,100%);fill-opacity:1;stroke-width:1;stroke-linecap:round;stroke-linejoin:round;stroke:rgb(0%,0%,0%);stroke-opacity:1;stroke-miterlimit:10;" d="M 203.9625 129.5 L 278.9625 129.5 L 278.9625 161 L 203.9625 161 Z M 203.9625 129.5 " transform="matrix(1.25,0,0,1.25,-116.25,-86.25)"/>
<path style=" stroke:none;fill-rule:nonzero;fill:rgb(0%,0%,0%);fill-opacity:1;" d="M 171.097656 98.4375 L 171.097656 90.390625 L 172.699219 90.390625 L 174.59375 96.09375 C 174.773438 96.617188 174.90625 97.011719 174.984375 97.285156 C 175.070312 96.988281 175.21875 96.558594 175.414062 95.996094 L 177.347656 90.390625 L 178.773438 90.390625 L 178.773438 98.4375 L 177.757812 98.4375 L 177.757812 91.699219 L 175.414062 98.4375 L 174.457031 98.4375 L 172.113281 91.582031 L 172.113281 98.4375 Z M 171.097656 98.4375 "/>
<path style=" stroke:none;fill-rule:nonzero;fill:rgb(0%,0%,0%);fill-opacity:1;" d="M 180 95.527344 C 180 94.449219 180.296875 93.648438 180.898438 93.125 C 181.40625 92.695312 182.015625 92.480469 182.734375 92.480469 C 183.539062 92.480469 184.199219 92.742188 184.707031 93.261719 C 185.214844 93.785156 185.46875 94.507812 185.46875 95.429688 C 185.46875 96.1875 185.351562 96.777344 185.117188 97.207031 C 184.894531 97.636719 184.570312 97.976562 184.140625 98.222656 C 183.710938 98.457031 183.242188 98.574219 182.734375 98.574219 C 181.914062 98.574219 181.25 98.316406 180.742188 97.792969 C 180.246094 97.261719 180 96.503906 180 95.527344 Z M 181.015625 95.527344 C 181.015625 96.269531 181.175781 96.832031 181.503906 97.207031 C 181.828125 97.574219 182.238281 97.753906 182.734375 97.753906 C 183.226562 97.753906 183.636719 97.574219 183.964844 97.207031 C 184.289062 96.832031 184.453125 96.257812 184.453125 95.488281 C 184.453125 94.773438 184.289062 94.226562 183.964844 93.847656 C 183.636719 93.472656 183.226562 93.28125 182.734375 93.28125 C 182.238281 93.28125 181.828125 93.472656 181.503906 93.847656 C 181.175781 94.214844 181.015625 94.773438 181.015625 95.527344 Z M 181.015625 95.527344 "/>
<path style=" stroke:none;fill-rule:nonzero;fill:rgb(0%,0%,0%);fill-opacity:1;" d="M 190.417969 98.4375 L 190.417969 97.695312 C 190.035156 98.28125 189.488281 98.574219 188.777344 98.574219 C 188.316406 98.574219 187.898438 98.441406 187.507812 98.183594 C 187.117188 97.925781 186.808594 97.570312 186.589844 97.109375 C 186.378906 96.65625 186.277344 96.128906 186.277344 95.527344 C 186.277344 94.941406 186.375 94.414062 186.570312 93.945312 C 186.765625 93.46875 187.046875 93.101562 187.429688 92.851562 C 187.820312 92.609375 188.253906 92.480469 188.738281 92.480469 C 189.089844 92.480469 189.402344 92.554688 189.675781 92.695312 C 189.949219 92.84375 190.167969 93.039062 190.339844 93.28125 L 190.339844 90.390625 L 191.335938 90.390625 L 191.335938 98.4375 Z M 187.292969 95.527344 C 187.292969 96.269531 187.449219 96.832031 187.761719 97.207031 C 188.074219 97.574219 188.445312 97.753906 188.875 97.753906 C 189.304688 97.753906 189.664062 97.578125 189.96875 97.226562 C 190.28125 96.875 190.4375 96.335938 190.4375 95.605469 C 190.4375 94.8125 190.28125 94.226562 189.96875 93.847656 C 189.65625 93.472656 189.273438 93.28125 188.835938 93.28125 C 188.390625 93.28125 188.019531 93.46875 187.722656 93.828125 C 187.433594 94.195312 187.292969 94.761719 187.292969 95.527344 Z M 187.292969 95.527344 "/>
<path style=" stroke:none;fill-rule:nonzero;fill:rgb(0%,0%,0%);fill-opacity:1;" d="M 196.871094 96.5625 L 197.90625 96.679688 C 197.734375 97.28125 197.425781 97.75 196.988281 98.085938 C 196.558594 98.414062 196 98.574219 195.328125 98.574219 C 194.476562 98.574219 193.804688 98.316406 193.296875 97.792969 C 192.796875 97.261719 192.554688 96.519531 192.554688 95.566406 C 192.554688 94.589844 192.808594 93.835938 193.316406 93.300781 C 193.824219 92.753906 194.476562 92.480469 195.289062 92.480469 C 196.070312 92.480469 196.699219 92.75 197.183594 93.28125 C 197.675781 93.804688 197.925781 94.546875 197.925781 95.507812 C 197.925781 95.578125 197.925781 95.664062 197.925781 95.78125 L 193.570312 95.78125 C 193.609375 96.421875 193.789062 96.910156 194.117188 97.246094 C 194.4375 97.585938 194.847656 97.753906 195.347656 97.753906 C 195.707031 97.753906 196.015625 97.664062 196.265625 97.480469 C 196.523438 97.285156 196.722656 96.984375 196.871094 96.5625 Z M 193.628906 94.960938 L 196.890625 94.960938 C 196.851562 94.46875 196.722656 94.097656 196.519531 93.847656 C 196.207031 93.472656 195.796875 93.28125 195.289062 93.28125 C 194.828125 93.28125 194.449219 93.4375 194.136719 93.75 C 193.832031 94.054688 193.667969 94.453125 193.628906 94.960938 Z M 193.628906 94.960938 "/>
<path style=" stroke:none;fill-rule:nonzero;fill:rgb(0%,0%,0%);fill-opacity:1;" d="M 199.125 98.4375 L 199.125 90.390625 L 200.101562 90.390625 L 200.101562 98.4375 Z M 199.125 98.4375 "/>
<path style="fill-rule:nonzero;fill:rgb(100%,100%,100%);fill-opacity:1;stroke-width:1;stroke-linecap:round;stroke-linejoin:round;stroke:rgb(0%,0%,0%);stroke-opacity:1;stroke-miterlimit:10;" d="M 308.215625 129.5 L 383.215625 129.5 L 383.215625 161 L 308.215625 161 Z M 308.215625 129.5 " transform="matrix(1.25,0,0,1.25,-116.25,-86.25)"/>
<path style=" stroke:none;fill-rule:nonzero;fill:rgb(0%,0%,0%);fill-opacity:1;" d="M 299.558594 94.511719 C 299.558594 93.183594 299.914062 92.144531 300.632812 91.386719 C 301.34375 90.621094 302.273438 90.234375 303.40625 90.234375 C 304.148438 90.234375 304.816406 90.421875 305.417969 90.78125 C 306.011719 91.132812 306.472656 91.632812 306.785156 92.265625 C 307.097656 92.90625 307.253906 93.625 307.253906 94.414062 C 307.253906 95.234375 307.085938 95.972656 306.765625 96.621094 C 306.4375 97.261719 305.96875 97.75 305.359375 98.085938 C 304.757812 98.414062 304.109375 98.574219 303.40625 98.574219 C 302.648438 98.574219 301.96875 98.394531 301.375 98.027344 C 300.773438 97.664062 300.320312 97.164062 300.007812 96.523438 C 299.703125 95.890625 299.558594 95.214844 299.558594 94.511719 Z M 300.652344 94.53125 C 300.652344 95.507812 300.910156 96.28125 301.433594 96.835938 C 301.949219 97.382812 302.609375 97.65625 303.40625 97.65625 C 304.195312 97.65625 304.855469 97.378906 305.378906 96.816406 C 305.894531 96.257812 306.160156 95.460938 306.160156 94.414062 C 306.160156 93.765625 306.046875 93.199219 305.828125 92.714844 C 305.601562 92.222656 305.28125 91.835938 304.851562 91.5625 C 304.421875 91.289062 303.941406 91.152344 303.425781 91.152344 C 302.667969 91.152344 302.019531 91.414062 301.472656 91.933594 C 300.925781 92.457031 300.652344 93.320312 300.652344 94.53125 Z M 300.652344 94.53125 "/>
<path style=" stroke:none;fill-rule:nonzero;fill:rgb(0%,0%,0%);fill-opacity:1;" d="M 312.332031 98.4375 L 312.332031 97.578125 C 311.871094 98.242188 311.257812 98.574219 310.476562 98.574219 C 310.132812 98.574219 309.816406 98.507812 309.519531 98.378906 C 309.214844 98.238281 308.992188 98.066406 308.835938 97.871094 C 308.6875 97.675781 308.589844 97.4375 308.542969 97.148438 C 308.503906 96.953125 308.484375 96.640625 308.484375 96.210938 L 308.484375 92.597656 L 309.460938 92.597656 L 309.460938 95.839844 C 309.460938 96.363281 309.484375 96.710938 309.539062 96.875 C 309.585938 97.140625 309.714844 97.34375 309.910156 97.5 C 310.113281 97.648438 310.367188 97.714844 310.671875 97.714844 C 310.96875 97.714844 311.246094 97.648438 311.511719 97.5 C 311.769531 97.34375 311.949219 97.140625 312.058594 96.875 C 312.160156 96.617188 312.214844 96.230469 312.214844 95.722656 L 312.214844 92.597656 L 313.210938 92.597656 L 313.210938 98.4375 Z M 312.332031 98.4375 "/>
<path style=" stroke:none;fill-rule:nonzero;fill:rgb(0%,0%,0%);fill-opacity:1;" d="M 316.921875 97.558594 L 317.058594 98.417969 C 316.773438 98.480469 316.523438 98.515625 316.316406 98.515625 C 315.953125 98.515625 315.671875 98.457031 315.476562 98.339844 C 315.28125 98.222656 315.136719 98.078125 315.046875 97.890625 C 314.96875 97.710938 314.929688 97.324219 314.929688 96.738281 L 314.929688 93.378906 L 314.207031 93.378906 L 314.207031 92.597656 L 314.929688 92.597656 L 314.929688 91.152344 L 315.925781 90.566406 L 315.925781 92.597656 L 316.921875 92.597656 L 316.921875 93.378906 L 315.925781 93.378906 L 315.925781 96.777344 C 315.925781 97.066406 315.9375 97.246094 315.964844 97.324219 C 316.003906 97.402344 316.0625 97.46875 316.140625 97.519531 C 316.21875 97.574219 316.328125 97.597656 316.472656 97.597656 C 316.589844 97.597656 316.738281 97.585938 316.921875 97.558594 Z M 316.921875 97.558594 "/>
<path style=" stroke:none;fill-rule:nonzero;fill:rgb(0%,0%,0%);fill-opacity:1;" d="M 317.878906 100.664062 L 317.878906 92.597656 L 318.777344 92.597656 L 318.777344 93.359375 C 318.984375 93.0625 319.21875 92.84375 319.480469 92.695312 C 319.753906 92.554688 320.085938 92.480469 320.476562 92.480469 C 320.972656 92.480469 321.40625 92.613281 321.785156 92.871094 C 322.164062 93.121094 322.449219 93.476562 322.644531 93.945312 C 322.839844 94.414062 322.9375 94.921875 322.9375 95.46875 C 322.9375 96.070312 322.828125 96.609375 322.605469 97.089844 C 322.398438 97.574219 322.089844 97.945312 321.6875 98.203125 C 321.285156 98.445312 320.855469 98.574219 320.398438 98.574219 C 320.074219 98.574219 319.78125 98.5 319.519531 98.359375 C 319.257812 98.21875 319.042969 98.042969 318.875 97.832031 L 318.875 100.664062 Z M 318.777344 95.546875 C 318.777344 96.304688 318.925781 96.867188 319.226562 97.226562 C 319.539062 97.578125 319.910156 97.753906 320.339844 97.753906 C 320.769531 97.753906 321.140625 97.574219 321.453125 97.207031 C 321.777344 96.832031 321.941406 96.25 321.941406 95.46875 C 321.941406 94.726562 321.785156 94.175781 321.472656 93.808594 C 321.171875 93.433594 320.808594 93.242188 320.378906 93.242188 C 319.960938 93.242188 319.589844 93.445312 319.265625 93.847656 C 318.941406 94.238281 318.777344 94.804688 318.777344 95.546875 Z M 318.777344 95.546875 "/>
<path style=" stroke:none;fill-rule:nonzero;fill:rgb(0%,0%,0%);fill-opacity:1;" d="M 327.960938 98.4375 L 327.960938 97.578125 C 327.503906 98.242188 326.886719 98.574219 326.105469 98.574219 C 325.765625 98.574219 325.445312 98.507812 325.148438 98.378906 C 324.847656 98.238281 324.621094 98.066406 324.464844 97.871094 C 324.320312 97.675781 324.222656 97.4375 324.171875 97.148438 C 324.132812 96.953125 324.113281 96.640625 324.113281 96.210938 L 324.113281 92.597656 L 325.089844 92.597656 L 325.089844 95.839844 C 325.089844 96.363281 325.113281 96.710938 325.167969 96.875 C 325.21875 97.140625 325.34375 97.34375 325.539062 97.5 C 325.746094 97.648438 326 97.714844 326.300781 97.714844 C 326.597656 97.714844 326.878906 97.648438 327.140625 97.5 C 327.398438 97.34375 327.582031 97.140625 327.6875 96.875 C 327.789062 96.617188 327.84375 96.230469 327.84375 95.722656 L 327.84375 92.597656 L 328.839844 92.597656 L 328.839844 98.4375 Z M 327.960938 98.4375 "/>
<path style=" stroke:none;fill-rule:nonzero;fill:rgb(0%,0%,0%);fill-opacity:1;" d="M 332.554688 97.558594 L 332.691406 98.417969 C 332.402344 98.480469 332.152344 98.515625 331.949219 98.515625 C 331.582031 98.515625 331.304688 98.457031 331.109375 98.339844 C 330.914062 98.222656 330.765625 98.078125 330.679688 97.890625 C 330.601562 97.710938 330.5625 97.324219 330.5625 96.738281 L 330.5625 93.378906 L 329.839844 93.378906 L 329.839844 92.597656 L 330.5625 92.597656 L 330.5625 91.152344 L 331.558594 90.566406 L 331.558594 92.597656 L 332.554688 92.597656 L 332.554688 93.378906 L 331.558594 93.378906 L 331.558594 96.777344 C 331.558594 97.066406 331.566406 97.246094 331.597656 97.324219 C 331.636719 97.402344 331.695312 97.46875 331.773438 97.519531 C 331.851562 97.574219 331.957031 97.597656 332.105469 97.597656 C 332.222656 97.597656 332.367188 97.585938 332.554688 97.558594 Z M 332.554688 97.558594 "/>
<path style="fill:none;stroke-width:1;stroke-linecap:round;stroke-linejoin:miter;stroke:rgb(0%,0%,0%);stroke-opacity:1;stroke-miterlimit:10;" d="M 308.215625 98.675 L 284.8625 98.596875 " transform="matrix(1.25,0,0,1.25,-116.25,-86.25)"/>
<path style="fill:none;stroke-width:1;stroke-linecap:butt;stroke-linejoin:miter;stroke:rgb(0%,0%,0%);stroke-opacity:1;stroke-miterlimit:10;" d="M 280.8625 98.58125 L 284.8625 98.596875 M 284.85625 100.096875 L 280.8625 98.58125 L 284.86875 97.096875 " transform="matrix(1.25,0,0,1.25,-116.25,-86.25)"/>
<path style="fill:none;stroke-width:1;stroke-linecap:round;stroke-linejoin:miter;stroke:rgb(0%,0%,0%);stroke-opacity:1;stroke-miterlimit:10;" d="M 241.4625 114.2 L 241.4625 123.6 " transform="matrix(1.25,0,0,1.25,-116.25,-86.25)"/>
<path style="fill:none;stroke-width:1;stroke-linecap:butt;stroke-linejoin:miter;stroke:rgb(0%,0%,0%);stroke-opacity:1;stroke-miterlimit:10;" d="M 241.4625 127.6 L 241.4625 123.6 M 242.9625 123.6 L 241.4625 127.6 L 239.9625 123.6 " transform="matrix(1.25,0,0,1.25,-116.25,-86.25)"/>
<path style="fill:none;stroke-width:1;stroke-linecap:round;stroke-linejoin:miter;stroke:rgb(0%,0%,0%);stroke-opacity:1;stroke-miterlimit:10;" d="M 168.66875 145.25 L 198.0625 145.25 " transform="matrix(1.25,0,0,1.25,-116.25,-86.25)"/>
<path style="fill:none;stroke-width:1;stroke-linecap:butt;stroke-linejoin:miter;stroke:rgb(0%,0%,0%);stroke-opacity:1;stroke-miterlimit:10;" d="M 202.0625 145.25 L 198.0625 145.25 M 198.0625 143.75 L 202.0625 145.25 L 198.0625 146.75 " transform="matrix(1.25,0,0,1.25,-116.25,-86.25)"/>
<path style="fill:none;stroke-width:1;stroke-linecap:round;stroke-linejoin:miter;stroke:rgb(0%,0%,0%);stroke-opacity:1;stroke-miterlimit:10;" d="M 278.9625 145.25 L 302.315625 145.25 " transform="matrix(1.25,0,0,1.25,-116.25,-86.25)"/>
<path style="fill:none;stroke-width:1;stroke-linecap:butt;stroke-linejoin:miter;stroke:rgb(0%,0%,0%);stroke-opacity:1;stroke-miterlimit:10;" d="M 306.315625 145.25 L 302.315625 145.25 M 302.315625 143.75 L 306.315625 145.25 L 302.315625 146.75 " transform="matrix(1.25,0,0,1.25,-116.25,-86.25)"/>
</g>
</svg>
